<svg width="32" height="32" viewBox="0 0 32 32" fill="none" xmlns="http://www.w3.org/2000/svg">
<g clip-path="url(#clip0_10_21)">
<path d="M22.0777 7.07844C21.8947 7.16698 21.7144 7.26073 21.534 7.3649C20.9903 7.6774 20.4572 8.05761 19.9108 8.49511L18.7465 7.18521C19.147 6.81802 19.5846 6.48469 20.0487 6.19042C20.4174 5.95344 20.8046 5.74511 21.1998 5.56281C21.359 5.48469 21.5181 5.41177 21.6799 5.34406C20.9107 4.00813 19.8047 3.04979 18.5528 2.45865C17.3036 1.87011 15.9005 1.64354 14.5373 1.77115C13.1819 1.89875 11.8637 2.38313 10.7763 3.21386C9.51911 4.17219 8.55897 5.60448 8.19295 7.50292L8.07891 8.09667L7.47683 8.20083C6.88802 8.3024 6.36022 8.44042 5.89872 8.6175C5.45048 8.78938 5.05263 8.99771 4.70253 9.24511C4.42404 9.44302 4.18268 9.66698 3.97845 9.90656C3.34455 10.6514 3.05014 11.5863 3.0581 12.5316C3.06606 13.4925 3.38433 14.4613 3.97049 15.2581C4.18798 15.555 4.4426 15.8258 4.7317 16.0628C5.02346 16.3024 5.35499 16.5003 5.72632 16.6488C6.09499 16.7972 6.50079 16.904 6.95433 16.9665H24.425C25.2764 16.7659 26.027 16.4925 26.6636 16.1435C27.2975 15.7946 27.8147 15.3727 28.2019 14.8649C28.804 14.0784 29.101 12.9639 29.1116 11.8232C29.1249 10.6253 28.8278 9.42219 28.247 8.54459C28.0799 8.29198 27.8995 8.06542 27.7059 7.85969C26.836 6.94042 25.7326 6.53938 24.5868 6.53156C23.7513 6.52636 22.8947 6.72427 22.0777 7.07844ZM30.0532 21.943C30.5916 21.943 31.077 22.1566 31.4298 22.5029C31.7825 22.8493 32 23.3284 32 23.8545C32 24.3831 31.7825 24.8597 31.4298 25.206C31.077 25.5524 30.589 25.7659 30.0532 25.7659C29.5148 25.7659 29.0294 25.5524 28.6767 25.206C28.4937 25.0264 28.3451 24.8102 28.247 24.568H23.4012C23.0193 24.568 22.709 24.2633 22.709 23.8883V18.706H19.0515V28.2972C19.3114 28.3935 19.5448 28.5446 19.7358 28.7321C20.0885 29.0784 20.306 29.5576 20.306 30.0836C20.306 30.6123 20.0885 31.0889 19.7358 31.4352C19.383 31.7816 18.895 31.9951 18.3592 31.9951C17.8208 31.9951 17.3354 31.7816 16.9827 31.4352C16.6299 31.0889 16.4124 30.6097 16.4124 30.0836C16.4124 29.555 16.6299 29.0784 16.9827 28.7321C17.1763 28.542 17.407 28.3935 17.667 28.2972V18.7086H13.532V29.9769C13.532 30.3519 13.2217 30.6566 12.8398 30.6566H5.13751C5.04202 30.956 4.87493 31.2243 4.65479 31.4404C4.30203 31.7868 3.81401 32.0003 3.27824 32.0003C2.73983 32.0003 2.25446 31.7868 1.9017 31.4404C1.54894 31.0941 1.33145 30.6149 1.33145 30.0889C1.33145 29.5602 1.54894 29.0836 1.9017 28.7373C2.25446 28.3909 2.74248 28.1774 3.27824 28.1774C3.81666 28.1774 4.30203 28.3909 4.65479 28.7373C4.81923 28.8988 4.9545 29.0889 5.05263 29.2998H12.1475V18.7086H8.66241V22.2086C8.66241 22.5836 8.35209 22.8883 7.97016 22.8883H3.76361C3.66548 23.1357 3.5143 23.3571 3.32598 23.542C2.97323 23.8883 2.48521 24.1019 1.94944 24.1019C1.41368 24.1019 0.925653 23.8883 0.572897 23.542C0.217489 23.1982 0 22.7191 0 22.1904C0 21.6618 0.217489 21.1852 0.570245 20.8389C0.923 20.4925 1.41102 20.279 1.94679 20.279C2.48255 20.279 2.97058 20.4925 3.32333 20.8389C3.5196 21.0316 3.67609 21.2685 3.77422 21.529H7.27526V18.7086H6.91189L6.8005 18.6982C6.15864 18.6175 5.57248 18.4691 5.04467 18.2555C4.4983 18.0342 4.01293 17.7477 3.58591 17.3961C3.18276 17.0654 2.82735 16.6878 2.52499 16.279C1.72134 15.1904 1.28902 13.8597 1.27841 12.5368C1.27576 11.2008 1.70012 9.87011 2.61517 8.79198C2.91223 8.44302 3.25968 8.12271 3.66017 7.83886C4.12433 7.50813 4.65744 7.22688 5.25686 6.99771C5.67062 6.83886 6.11355 6.70604 6.58301 6.60188C7.11347 4.53677 8.24335 2.94563 9.69416 1.83886C11.0521 0.805002 12.6886 0.20344 14.3702 0.0445856C16.0438 -0.114269 17.7704 0.164377 19.3167 0.893544C21.0089 1.69042 22.4809 3.01594 23.4384 4.88313C23.823 4.82323 24.2075 4.79459 24.5921 4.79719C26.21 4.80761 27.7696 5.37531 29.0002 6.6774C29.2575 6.95083 29.5015 7.25552 29.7296 7.59927C30.5014 8.76334 30.894 10.3154 30.8781 11.8363C30.8622 13.3284 30.4511 14.8128 29.6129 15.9066C29.0666 16.6201 28.3663 17.2008 27.5256 17.6618C26.7166 18.1071 25.7724 18.4456 24.7141 18.6852L24.5179 18.7086H24.0988V23.2113H28.2231C28.3213 22.943 28.4777 22.7008 28.6793 22.5029C29.0268 22.1566 29.5148 21.943 30.0532 21.943Z" fill="#4285F4"/>
</g>
<defs>
<clipPath id="clip0_10_21">
<rect width="32" height="32" fill="white"/>
</clipPath>
</defs>
</svg>
