<svg width="414" height="164" viewBox="0 0 414 164" fill="none" xmlns="http://www.w3.org/2000/svg">
<path d="M393.034 98.1687C392.649 98.2649 392.457 98.2649 392.264 98.5536C391.976 99.0348 391.783 99.7084 391.11 99.7084C391.013 99.7084 390.917 99.9009 390.917 99.9971C391.11 100.575 390.725 100.671 390.34 100.671C390.051 100.671 389.859 100.767 389.762 100.863C389.474 101.152 389.185 101.441 388.8 101.729C388.319 102.018 388.126 102.595 387.645 102.788C387.164 102.98 387.453 103.558 386.875 103.75C386.394 103.943 386.009 104.231 385.624 104.616C385.432 104.809 385.143 104.905 385.047 105.097C384.662 105.964 383.507 106.06 383.122 106.926C383.122 107.022 383.026 107.118 382.93 107.118C382.545 107.118 382.256 107.407 381.967 107.6C380.716 108.466 379.658 109.524 378.311 110.198C376.482 111.738 374.558 112.892 372.633 114.143C371.286 115.009 369.746 115.876 368.302 116.838L367.725 117.223L366.666 117.8L365.415 118.474C365.127 118.763 364.646 118.859 364.453 119.147C364.164 119.629 363.587 119.436 363.298 119.821C362.817 120.206 362.143 120.495 361.566 120.783C360.508 121.265 359.545 121.842 358.487 122.419C358.39 122.516 358.294 122.708 358.102 122.708C357.428 122.708 356.947 123.285 356.273 123.478C355.6 123.67 355.022 124.055 354.349 124.44C353.579 124.825 352.905 125.499 351.943 125.499C351.75 125.499 351.558 125.691 351.365 125.788C350.307 126.365 349.152 126.942 347.997 127.327L346.169 128.193L343.571 129.348C342.704 129.733 341.838 130.503 340.78 130.503C340.491 130.503 340.299 130.695 340.01 130.792C339.24 131.08 338.374 131.658 337.508 131.946C335.968 132.428 334.428 133.197 332.792 133.679C331.349 134.064 329.905 134.93 328.462 135.315C328.077 135.411 327.788 135.603 327.596 135.988C327.5 136.181 327.403 136.277 327.211 136.181C327.018 136.084 326.73 135.988 326.441 136.084C325.767 136.277 325.094 136.566 324.42 136.854C323.939 137.239 323.362 137.335 322.784 137.528C321.629 137.913 320.475 138.009 319.416 138.683C318.261 138.971 317.203 139.549 315.952 139.838C315.086 140.03 314.316 140.319 313.45 140.704C312.391 141.185 311.236 141.57 310.082 141.762C309.6 141.858 309.119 141.955 308.734 142.147C307.291 142.917 305.655 143.591 303.923 143.591C303.826 143.591 303.73 143.687 303.634 143.687C302.864 144.072 301.998 144.553 301.036 144.553C300.843 144.553 300.747 144.649 300.554 144.745C300.17 144.938 299.688 145.13 299.207 145.13C298.726 145.13 298.245 145.323 297.764 145.515C296.898 145.9 296.031 145.996 295.165 146.285C293.048 146.959 290.739 147.344 288.622 148.017C287.371 148.402 286.023 148.499 284.772 149.076C283.714 149.172 282.751 149.653 281.597 149.75C280.538 149.846 279.479 150.231 278.421 150.423C277.94 150.519 277.459 150.712 277.074 150.712C275.053 151.193 272.936 151.482 270.915 151.963C268.894 152.444 266.777 152.829 264.66 153.31C264.371 153.31 264.275 153.406 263.986 153.695C263.89 153.791 263.793 153.791 263.601 153.791C262.831 153.503 261.965 153.599 261.195 153.888L259.655 154.176C258.789 154.176 257.923 154.465 257.057 154.657C256.191 154.85 255.325 154.754 254.459 154.946C253.978 155.042 253.497 155.042 253.015 155.139L251.957 155.331C251.091 155.523 250.128 155.716 249.166 155.716C248.781 155.812 248.396 155.716 248.011 155.908C246.183 156.486 244.354 156.197 242.622 156.678C241.467 156.678 240.409 156.775 239.35 156.967C237.907 157.256 236.56 157.544 235.116 157.352C234.25 157.544 233.288 157.641 232.325 157.641H232.037C231.555 157.929 230.882 158.026 230.401 157.929C229.535 157.929 228.765 158.218 227.899 158.122C227.129 158.41 226.263 158.218 225.397 158.507C225.108 158.603 224.627 158.507 224.242 158.699C222.895 158.507 221.643 158.603 220.392 158.892C219.526 159.084 218.66 158.795 217.89 159.084C217.024 158.795 216.158 158.988 215.292 159.084C213.656 159.277 212.02 158.988 210.48 159.469C210.192 159.565 209.903 159.469 209.711 159.469C207.882 159.469 206.15 159.565 204.418 159.95H203.648C203.455 159.95 203.455 159.95 203.263 160.143C203.167 160.239 203.071 160.335 203.071 160.239C202.493 159.758 201.723 159.854 201.05 159.95C200.376 160.046 199.606 160.143 198.933 160.143H194.891C193.736 160.143 192.677 159.95 191.619 160.335C191.33 160.431 190.945 160.239 190.656 160.239C190.272 160.239 189.983 160.431 189.598 160.431C188.732 160.239 187.866 160.335 187 160.624C186.807 160.624 186.711 160.624 186.615 160.528C186.326 160.239 186.037 160.143 185.749 160.335C185.46 160.431 185.075 160.528 184.786 160.431C184.401 160.335 184.113 160.335 183.728 160.431C183.439 160.528 183.15 160.431 182.862 160.335C182.573 160.335 182.477 160.239 182.188 160.335C181.611 160.528 181.033 160.335 180.36 160.335C180.071 160.335 179.686 160.239 179.301 160.239C178.531 160.239 177.761 160.143 176.895 160.239C176.125 160.335 175.452 160.335 174.586 160.143C174.393 160.143 174.008 160.335 173.719 160.335C173.527 160.335 173.335 160.431 173.142 160.431C172.084 160.046 170.929 160.239 169.87 160.143C169.1 160.046 168.33 160.239 167.657 160.046C166.791 159.758 165.828 160.239 164.962 159.95C164.289 160.335 163.519 159.854 162.845 160.046C161.594 159.662 160.343 159.854 159.092 159.854C158.515 159.854 157.937 160.143 157.456 159.661C157.36 159.565 157.071 159.565 156.879 159.565C156.59 159.662 156.398 159.758 156.109 159.661C155.339 159.373 154.665 159.662 153.896 159.565C153.318 159.854 152.644 159.662 152.067 159.469C151.393 159.277 150.72 159.084 149.95 159.469C149.854 159.469 149.661 159.469 149.469 159.373C149.276 159.373 149.084 159.277 148.891 159.277C148.025 159.565 147.159 159.084 146.293 159.18C145.331 158.795 144.272 158.892 143.214 158.892C142.829 158.892 142.348 158.892 141.963 158.795C141.385 158.603 140.712 158.603 140.134 158.603C138.787 158.603 137.536 158.218 136.285 158.218C136.189 158.218 136.092 158.122 135.996 158.122C135.226 157.833 134.36 158.122 133.59 157.833C133.494 157.737 133.205 157.833 133.013 157.929C132.628 157.929 132.243 157.737 131.762 157.737C131.377 157.641 130.896 157.737 130.415 157.737C130.415 157.737 130.318 157.737 130.318 157.641C129.741 157.352 129.067 157.352 128.49 157.352C127.431 157.352 126.373 157.448 125.411 156.967C124.641 157.063 123.871 156.967 123.197 156.775C122.716 157.063 122.331 156.775 121.85 156.775C121.369 156.775 120.791 156.678 120.31 156.486C119.637 156.197 118.867 156.486 118.193 156.101C117.712 156.486 117.327 156.101 116.846 156.101C116.365 155.908 115.787 155.812 115.306 155.812C114.825 155.812 114.44 155.523 113.959 155.716C113.381 155.812 112.9 155.523 112.419 155.427C111.842 155.331 111.264 155.139 110.591 155.331C110.302 155.427 109.917 155.427 109.725 155.139C109.34 154.85 108.955 154.85 108.57 154.85C106.838 154.85 105.105 154.561 103.469 154.272C102.218 154.08 101.064 154.08 99.9089 153.888C99.8126 153.791 99.8126 153.888 99.7164 153.888C98.8503 153.888 97.9842 153.695 97.1181 153.503C96.6369 153.406 96.252 153.118 95.7709 153.021C95.3859 152.925 94.9047 153.214 94.4236 153.021C94.1349 152.925 93.75 153.118 93.365 153.118C92.7876 152.733 92.0178 152.925 91.4404 152.637C91.0554 152.444 90.6705 152.54 90.1893 152.348C89.9006 152.252 89.6119 152.444 89.3232 152.444C88.8421 152.444 88.4572 152.348 88.0722 152.155C87.4948 151.867 86.8212 151.674 86.2438 151.674C85.2815 151.674 84.3191 151.482 83.3568 151.193C82.202 150.808 80.951 150.712 79.7 150.519C79.2188 150.327 78.5452 150.423 78.1602 150.038C77.9678 149.846 77.6791 149.942 77.4866 149.942C77.3904 150.038 77.1979 150.038 77.1017 150.038C76.5243 149.653 75.9469 149.75 75.3695 149.653C74.3109 149.461 73.2523 148.883 72.0975 149.076C71.9051 149.172 71.7126 149.076 71.6164 148.98C70.8465 148.21 69.6917 148.691 68.9219 148.306C68.7294 148.21 68.5369 148.21 68.3445 148.306C68.0558 148.402 67.7671 148.402 67.5746 148.114C67.1897 147.632 66.7085 147.536 66.0349 147.536C65.0726 147.536 64.2065 146.863 63.2441 147.151C62.8592 146.959 62.5705 146.766 62.1856 146.67L61.2232 146.381C60.0684 145.996 59.1061 145.612 58.0476 145.612C57.9513 145.612 57.9513 145.612 57.8551 145.515C57.4702 145.13 56.8928 145.227 56.4116 145.13C56.0267 145.034 55.738 145.034 55.353 144.842C54.7756 144.36 53.9095 144.649 53.2359 143.976C53.1397 143.879 52.9472 143.879 52.7547 143.879C52.2736 144.072 51.6962 143.976 51.3112 143.591C51.215 143.494 51.0225 143.302 50.9263 143.398C50.2527 143.783 49.7715 143.109 49.1941 142.917C48.713 142.725 48.2318 142.532 47.5582 142.532C47.4619 142.532 47.2695 142.532 47.1732 142.436C46.5958 141.858 45.9222 141.858 45.2486 141.666C44.0938 141.377 42.5541 141.089 41.688 140.222C41.5917 140.126 41.4955 140.126 41.3993 140.126C41.0143 140.319 40.7256 140.222 40.3407 140.03C39.7633 139.741 39.1859 139.453 38.416 139.453C38.3198 139.453 38.1273 139.356 38.0311 139.26C37.6462 138.875 37.165 138.875 36.7801 138.683C36.3952 138.298 35.914 138.298 35.5291 138.105C35.2404 138.105 34.9517 137.913 34.663 137.72C34.278 137.432 33.8931 137.335 33.4119 137.239C32.9308 137.143 32.4496 136.758 32.0647 136.469C31.8722 136.469 31.776 136.373 31.5835 136.373C31.0061 136.373 30.6212 136.181 30.14 135.892C29.7551 135.603 29.2739 135.507 28.889 135.315C27.9267 135.026 27.0606 134.641 26.0982 134.256L25.7133 133.967C25.4246 133.582 25.0397 133.486 24.4623 133.486C24.366 133.486 24.1736 133.486 24.0773 133.39C23.2112 132.524 22.0564 132.524 21.2866 131.754C20.7092 131.562 20.4205 131.177 19.9393 130.984C19.4582 130.792 18.977 130.31 18.4958 130.118C16.9561 129.541 15.8975 128.29 14.454 127.52C14.1654 127.423 14.0691 127.135 13.7804 127.039C13.4917 126.75 13.1068 126.365 12.7219 126.172C12.2407 125.884 11.8558 125.403 11.3746 125.114C10.9897 124.921 10.701 124.536 10.5085 124.248C10.1236 123.67 9.73864 123.093 9.06501 122.804C8.39138 122.516 8.39138 121.457 7.71775 121.168C7.52528 121.072 7.33281 120.88 7.23658 120.783C6.65918 120.206 6.17802 119.436 5.88932 118.666C5.60062 117.993 5.21569 117.512 4.92699 116.838C4.54206 116.26 4.34959 115.587 4.0609 115.009L3.29103 113.566C2.9061 113.085 3.09857 112.411 3.00233 111.93C2.9061 111.353 2.80987 110.775 2.80987 110.198C2.80987 109.62 2.42494 109.139 2.52117 108.562C2.6174 107.984 2.42494 107.407 2.52117 106.83C2.6174 106.252 2.80987 105.771 2.6174 105.194C2.52117 105.097 2.6174 105.001 2.6174 104.905C3.09857 103.365 3.1948 101.826 3.67596 100.286C3.7722 100.19 3.7722 99.9009 3.7722 99.7084L4.0609 98.6499C3.7722 98.1687 4.34959 97.9762 4.44583 97.6875C4.63829 97.3988 4.44583 97.1101 4.63829 96.9177C4.92699 96.629 5.02322 96.4365 5.11946 96.1478C5.69685 94.5118 6.65918 93.0684 7.33281 91.5286C7.62151 90.855 7.91021 90.2776 8.29514 89.7964C8.48761 89.5077 8.68007 89.219 8.77631 88.9303C8.96877 88.3529 9.35371 88.0642 9.54617 87.5831C10.316 87.0057 10.701 86.1396 11.0859 85.2735C11.3746 84.8885 11.5671 84.4074 12.0482 84.1187C12.2407 84.1187 12.4332 83.9262 12.5294 83.7337C12.7219 82.9639 13.2993 82.4827 13.7804 82.0016C14.2616 81.5204 14.6465 81.1355 15.0314 80.6543C15.9938 79.4033 17.0523 78.3447 18.1109 77.2862L20.5167 74.6879C21.0941 74.1105 21.7677 73.7255 22.1527 73.0519C23.6924 71.7046 25.2321 70.5498 26.7719 69.0101C27.4455 68.3365 28.2154 67.6629 28.9852 67.0855C29.7551 66.5081 30.5249 66.0269 31.1986 65.3533C31.776 64.7759 32.2571 64.3909 32.8345 64.006C33.3157 63.5248 33.8931 63.1399 34.4705 62.755C35.1441 62.2738 35.8178 61.6964 36.4914 61.3115C37.6462 60.6379 38.6085 59.868 39.6671 59.0981C40.8219 58.232 41.8804 57.2697 43.1315 56.6923L43.7089 56.4036C44.7674 55.2488 46.2109 54.7677 47.4619 53.8053C48.328 53.1317 49.2904 52.5543 50.3489 51.9769C50.8301 51.6882 51.3112 51.4957 51.7924 51.1108C53.0434 50.0522 54.5832 49.2824 56.0267 48.5125C56.3154 48.4163 56.5078 48.32 56.7003 48.1276C57.3739 47.4539 58.24 47.2615 58.9136 46.6841C60.7421 46.0105 62.1856 44.9519 63.8215 43.9896C65.7462 42.8348 67.5746 41.8724 69.6917 41.0063C70.1729 40.8139 70.5578 40.5252 71.039 40.044C71.2315 39.8516 71.3277 39.5629 71.5202 39.3704L71.7126 39.2742C72.0975 39.8516 72.5787 39.3704 72.9636 39.2742C73.3486 39.1779 73.8297 38.8892 74.2147 38.6968C74.5996 38.5043 75.0808 38.3118 75.4657 38.0231H75.5619C76.2356 37.6382 76.813 37.2533 77.4866 36.9646C78.7376 36.4834 79.8924 35.8098 81.0472 35.2324C81.6246 34.9437 82.4907 34.7512 82.9719 34.1738C83.838 34.1738 84.5116 33.6926 85.1852 33.4039L88.6496 31.9605C89.6119 31.5755 90.5743 30.9981 91.6328 30.6132C92.4989 30.3245 93.365 30.132 94.2311 29.5546C94.6161 29.2659 95.0972 29.1697 95.4821 29.0735C95.7709 28.9772 96.0596 28.9772 96.252 28.881C97.888 28.0149 99.6202 27.3413 101.256 26.7639C102.122 26.4752 102.796 25.7053 103.758 25.8015C104.239 25.2242 105.009 25.6091 105.587 25.2242C106.26 24.8392 107.223 24.8392 107.8 24.1656C108.666 23.8769 109.532 23.6844 110.302 23.3957C111.938 23.0108 113.574 22.7221 114.921 21.856C115.21 21.6635 115.595 21.5673 115.98 21.4711C117.519 21.0861 118.963 20.4125 120.599 20.1238C121.85 19.4502 123.293 19.2577 124.641 18.6803C124.929 18.4879 125.122 18.4879 125.411 18.3916C126.758 18.1992 128.201 18.0067 129.356 17.4293C129.741 17.2368 130.126 17.3331 130.511 17.0444C130.8 16.8519 131.377 16.7557 131.762 16.6594C132.532 16.6594 133.205 16.467 133.879 16.1783C134.36 16.082 134.938 15.9858 135.419 15.7933C137.247 15.0235 139.268 14.9272 141.097 14.2536C141.385 14.2536 141.578 14.0611 141.866 14.0611C142.54 14.0611 143.214 13.7724 143.695 13.2913C143.791 13.195 143.984 13.2913 144.08 13.3875C144.08 13.4837 144.176 13.58 144.272 13.58C144.946 13.58 145.619 13.2913 146.197 13.0988C146.486 13.0026 146.774 12.8101 146.967 12.8101C147.64 12.8101 148.218 12.7139 148.795 12.5214C149.373 12.3289 150.142 12.4252 150.72 12.2327C151.49 11.944 152.26 11.8478 153.029 11.6553C153.799 11.4628 154.569 11.2704 155.339 11.1741C156.109 11.0779 156.783 10.5005 157.552 10.7892C158.13 10.5005 158.707 10.5005 159.381 10.5005C159.477 10.5005 159.573 10.4043 159.669 10.4043C160.151 10.0194 160.728 10.1156 161.305 10.0194C162.46 9.82689 163.519 9.82689 164.674 9.53819C165.828 9.24949 167.079 9.24949 168.138 8.76833C168.234 8.6721 168.427 8.6721 168.619 8.6721C169.389 8.6721 170.159 8.57586 170.929 8.3834C172.468 7.99846 174.008 7.70976 175.548 7.70976C175.933 7.70976 176.222 7.61353 176.51 7.32484C176.703 7.2286 176.799 7.2286 176.991 7.32484C177.569 7.42107 178.146 7.42107 178.627 7.2286C178.916 7.13237 179.205 7.13237 179.397 7.13237C180.648 7.13237 181.899 6.74744 183.15 6.74744C183.535 6.74744 184.016 6.6512 184.401 6.55497C185.556 6.26627 186.711 6.17004 187.962 6.17004C188.539 6.17004 189.213 6.07381 189.79 5.88134C190.56 5.59264 191.33 5.49641 192.1 5.59264C194.025 5.78511 195.949 5.11148 197.874 5.11148C198.163 5.11148 198.451 5.01524 198.74 4.82278C198.933 4.72655 199.125 4.82278 199.317 4.82278C199.895 4.82278 202.108 4.72655 202.493 4.63031C202.782 4.53408 202.878 4.43785 202.974 4.24538C203.071 4.05291 203.167 4.05291 203.263 4.24538C203.455 4.63031 203.744 4.63031 204.033 4.53408C204.803 4.43785 205.573 4.34161 206.342 4.34161C207.497 4.34161 208.652 4.34161 209.807 3.95668C211.347 3.95668 212.983 3.95668 214.618 3.66798C215.196 3.57175 215.869 3.66798 216.447 3.57175C217.121 3.47552 217.794 3.28305 218.468 3.57175H218.564C219.334 3.28305 220.008 3.47552 220.777 3.28305C221.547 3.09059 222.317 3.09059 222.991 3.28305C223.376 3.37929 223.857 3.18682 223.953 2.80189C224.049 2.51319 224.146 2.41696 224.338 2.70565C224.434 2.89812 224.53 2.99435 224.723 2.99435C225.204 2.99435 225.781 3.09059 226.263 2.89812C227.225 2.51319 228.091 2.80189 229.053 2.80189C229.438 2.80189 229.631 2.80189 229.631 2.41696C229.727 2.22449 229.823 2.22449 229.92 2.32072C230.112 2.80189 230.593 2.70565 230.978 2.70565H234.25C234.442 2.70565 234.635 2.60942 234.827 2.60942C235.212 2.41696 235.597 2.41696 236.078 2.41696H237.426C238.484 2.41696 239.543 2.12826 240.505 2.22449C241.371 2.32072 242.237 2.41696 243.103 2.12826C243.392 2.03203 243.777 2.12826 244.066 2.22449C244.354 2.32072 244.643 2.32072 244.932 2.03203C245.124 1.93579 245.221 2.03203 245.509 2.03203C246.183 2.03203 246.953 2.22449 247.626 1.93579C247.723 1.83956 247.915 1.83956 248.108 1.93579C249.07 2.12826 250.032 2.03203 250.995 2.03203C251.668 2.03203 252.342 1.93579 253.015 1.55086H253.208C253.4 1.74333 253.304 2.12826 253.689 1.93579H254.555C254.844 1.83956 255.133 1.83956 255.325 1.83956H255.517C256.191 2.03203 256.865 1.93579 257.538 1.93579C258.116 1.93579 258.886 2.22449 259.463 1.64709C259.463 1.55086 259.655 1.55086 259.752 1.55086C260.906 1.55086 262.158 1.93579 263.409 1.83956C263.601 1.74333 263.793 1.83956 263.986 1.83956C264.275 1.93579 264.467 1.93579 264.66 1.83956C265.045 1.64709 265.429 1.55086 265.814 1.55086C266.199 1.55086 266.584 1.74333 266.969 1.83956C267.354 1.93579 267.547 1.83956 267.932 1.83956C268.701 1.83956 269.471 1.74333 270.241 1.83956C271.3 1.93579 272.262 2.03203 273.321 2.03203C274.668 2.03203 276.015 2.12826 277.362 2.12826C277.843 2.12826 278.421 2.51319 278.902 2.03203C278.902 1.93579 279.191 1.93579 279.287 2.03203L280.923 2.32072C282.174 2.32072 283.329 2.32072 284.58 2.41696C285.542 2.51319 286.504 2.32072 287.563 2.51319C288.525 2.70565 289.584 2.89812 290.642 2.60942L291.027 2.51319C291.509 2.70565 291.893 2.80189 292.278 2.60942C292.76 2.41696 293.048 2.80189 293.529 2.70565C294.877 2.41696 296.224 3.18682 297.667 3.18682C297.956 3.18682 297.956 2.99435 298.052 2.80189C298.052 2.70565 298.149 2.41696 298.341 2.60942C298.822 3.09059 299.303 3.18682 299.977 3.18682C300.554 3.18682 301.228 3.37929 301.805 3.47552C301.998 3.57175 302.19 3.57175 302.383 3.47552C302.96 2.89812 303.634 3.37929 304.308 3.09059C304.596 3.28305 304.885 3.57175 305.174 3.57175C305.559 3.57175 305.944 3.18682 306.328 3.57175C306.617 3.86045 306.906 3.86045 307.195 3.86045C308.542 3.86045 309.793 4.24538 311.044 4.24538C311.814 4.24538 312.68 4.34161 313.353 4.53408C313.642 4.63031 314.027 4.63031 314.22 4.43785C314.412 4.24538 314.412 3.95668 314.604 4.34161C314.797 4.72655 315.278 4.91901 315.663 4.91901C316.625 4.91901 317.588 5.11148 318.454 5.20771C319.801 5.40017 321.148 5.59264 322.496 5.59264C322.88 5.78511 323.265 5.59264 323.554 5.68888C323.747 5.78511 323.843 5.59264 324.035 5.78511C324.42 6.17004 324.901 6.07381 325.479 6.07381C325.671 6.07381 325.864 5.97758 325.96 6.17004C326.249 6.3625 326.537 6.3625 326.826 6.45874C327.596 6.55497 328.462 6.26627 329.232 6.6512C329.232 6.6512 329.328 6.45874 329.424 6.45874C329.521 6.3625 329.617 6.26627 329.809 6.17004C330.098 6.74744 330.579 7.13237 331.349 7.13237C332.311 7.13237 333.177 7.2286 334.044 7.61353C334.525 7.806 335.006 7.806 335.391 7.5173C335.872 7.32484 336.353 7.2286 336.642 7.806C336.834 7.99846 337.123 7.99846 337.315 8.0947C337.604 8.0947 337.989 8.0947 338.085 8.19093C338.663 8.76833 339.336 8.57586 340.01 8.57586C340.299 8.57586 340.78 7.806 340.78 8.76833C340.78 8.86456 340.972 8.86456 341.069 8.96079C341.838 9.15326 342.608 9.15326 343.282 9.53819C343.474 9.53819 343.667 9.63443 343.763 9.53819C344.244 9.34572 344.629 9.53819 344.918 9.73066C345.303 9.92312 345.784 9.92312 346.169 9.92312C346.361 9.92312 346.458 9.82689 346.554 9.73066C346.746 9.53819 346.746 9.24949 346.939 9.63443C347.131 9.92312 347.227 10.1156 347.612 10.3081C348.19 10.5968 348.863 10.9817 349.633 10.7892C350.211 11.3666 351.077 11.0779 351.847 11.4628C352.232 11.6553 352.809 11.7516 353.29 11.5591C353.579 11.4628 353.867 11.4628 354.156 11.8478C354.541 12.3289 355.118 12.3289 355.792 12.1365C356.081 12.0402 356.37 11.944 356.658 11.944C357.043 11.944 356.947 12.4252 357.139 12.6176C357.332 12.7139 357.428 12.8101 357.524 12.9063H357.813C357.813 12.9063 357.909 12.8101 357.909 12.7139C357.813 12.5214 357.717 12.3289 357.717 12.1365C357.621 11.8478 357.524 11.5591 357.139 11.5591L356.37 11.2704C355.792 11.0779 353.867 10.5005 353.098 10.4043C352.905 10.3081 352.713 10.3081 352.52 10.4043C352.232 10.5968 352.039 10.4043 351.943 10.2118C351.75 9.92312 351.462 9.92312 351.269 10.0194C351.077 10.1156 350.884 10.2118 350.692 10.4043C350.596 10.5005 350.499 10.5005 350.499 10.4043C350.403 10.3081 350.403 10.3081 350.403 10.2118C350.403 9.73066 350.499 9.63443 350.114 9.63443C349.826 9.63443 349.537 9.53819 349.248 9.34572C348.671 8.96079 347.997 8.86456 347.324 8.76833C346.073 8.57586 344.725 8.28716 343.474 7.99846C342.704 7.806 341.838 7.61353 341.261 8.19093C341.165 8.28716 341.069 8.19093 341.069 8.0947C341.069 7.99846 341.069 7.90223 341.165 7.806C341.165 7.70976 341.261 7.70976 341.357 7.61353C341.357 7.61353 341.261 7.5173 341.165 7.5173C339.914 7.5173 338.663 6.84367 337.412 6.74744C337.027 6.55497 336.738 6.6512 336.353 6.74744C335.968 6.84367 335.583 6.84367 335.295 6.45874C335.198 6.17004 334.91 6.26627 334.813 6.45874C334.621 6.74744 334.525 6.74744 334.236 6.55497C333.562 6.17004 332.792 5.78511 331.926 5.78511L331.541 5.68888C330.964 5.40017 330.579 5.68888 330.29 5.97758C330.29 5.59264 330.002 5.30394 329.617 5.30394C329.136 5.30394 328.654 5.49641 328.27 5.11148C327.5 4.91901 326.73 4.72655 325.864 4.72655C325.479 4.72655 325.19 4.72655 324.805 4.63031C323.65 4.34161 322.496 3.95668 321.341 3.95668H320.09C319.705 3.95668 319.32 3.57175 319.031 3.76422C318.55 4.05291 318.261 3.57175 317.876 3.47552C317.107 3.28305 316.337 3.18682 315.567 3.18682C313.931 3.18682 312.295 2.70565 310.659 2.70565H310.466C309.793 2.32072 309.119 2.41696 308.446 2.41696C307.772 2.41696 307.195 2.22449 306.521 2.22449C305.462 2.22449 304.308 2.03203 303.249 2.03203C302.094 2.03203 302.094 1.83956 301.228 2.32072C301.132 2.41696 300.939 2.32072 300.747 2.32072C300.651 2.32072 300.651 2.22449 300.747 2.12826C300.843 2.03203 300.939 2.03203 301.036 1.83956C300.17 1.64709 299.303 1.93579 298.534 1.55086C298.534 1.55086 298.437 1.55086 298.437 1.64709C297.956 1.83956 297.379 1.64709 296.898 1.55086C295.743 1.35839 294.588 1.16593 293.433 1.16593C293.145 1.16593 292.856 1.16593 292.567 1.06969C291.701 0.780998 290.835 0.973461 289.969 0.973461C289.68 0.973461 289.391 1.06969 289.103 1.06969C285.927 0.396066 282.655 1.06969 279.479 0.396066C278.998 0.299834 278.517 0.492297 278.132 0.396066C277.17 0.203602 276.111 0.299834 275.149 0.299834C274.283 0.299834 273.417 0.203602 272.647 0.299834C271.781 0.396066 271.011 0.203602 270.241 0.107365C270.145 0.0111332 270.049 0.107365 269.952 0.107365C268.028 0.107365 266.103 0.492297 264.178 0.107365C263.89 0.396066 263.505 0.0111332 263.216 0.107365C262.639 0.299834 262.158 0.299834 261.58 0.203602C261.003 0.107365 260.522 0.203602 259.944 0.203602H259.752C259.367 0.203602 258.982 -0.18133 258.597 0.107365C258.212 0.396066 257.827 0.0111332 257.346 0.107365C256.672 0.203602 255.999 0.299834 255.325 0.299834C255.036 0.396066 254.651 0.299834 254.266 0.203602C253.593 0.203602 252.823 0.203602 252.149 0.107365C251.379 0.0111332 250.61 0.203602 249.84 0.396066C249.359 0.492297 249.07 0.492297 248.589 0.299834C248.3 0.203602 248.011 0.203602 247.723 0.203602C246.76 0.203602 245.894 0.299834 244.932 0.203602C244.258 0.107365 243.681 0.492297 243.007 0.492297C242.334 0.492297 241.66 0.107365 240.986 0.203602L240.12 0.492297C239.831 0.588529 239.543 0.396066 239.158 0.396066C238.484 0.588529 237.714 0.684766 237.041 0.396066C236.271 0.492297 235.501 0.492297 234.731 0.492297C234.442 0.492297 234.154 0.396066 233.865 0.396066C233.288 0.588529 232.807 0.588529 232.229 0.588529C231.748 0.588529 231.267 0.87723 230.786 0.396066C230.786 0.299834 230.497 0.396066 230.401 0.492297C230.112 0.588529 229.92 0.780998 229.727 0.973461C229.631 1.06969 229.438 1.06969 229.342 0.973461C228.957 0.588529 228.668 0.780998 228.38 0.780998C227.802 0.780998 227.225 0.780998 226.744 0.588529C226.07 0.780998 225.493 0.588529 224.915 0.588529C224.242 0.588529 223.472 0.588529 222.895 0.684766C222.413 0.780998 221.932 0.973461 221.451 0.87723C221.066 0.780998 220.489 1.26216 220.104 0.87723C220.008 0.780998 219.719 0.87723 219.719 0.973461C219.43 1.55086 219.141 1.26216 218.756 1.06969C218.564 0.973461 218.275 0.87723 217.987 0.87723C217.313 0.87723 216.543 0.87723 215.869 0.973461C215.388 1.06969 215.003 1.16593 214.618 1.16593C213.464 1.16593 212.405 1.35839 211.347 1.35839C211.25 1.35839 211.058 1.45463 210.962 1.55086C210.769 1.74333 210.48 1.74333 210.192 1.64709C209.807 1.55086 209.326 1.45463 208.844 1.64709C208.652 1.74333 208.46 1.74333 208.267 1.64709C207.882 1.45463 207.401 1.55086 207.016 1.64709C206.727 1.74333 206.439 1.83956 206.15 1.83956C204.899 1.83956 203.744 1.93579 202.589 2.12826C200.376 2.51319 198.163 2.22449 196.046 2.80189H195.468H194.794C193.255 3.18682 191.715 3.28305 190.175 3.47552C189.405 3.57175 188.539 3.57175 187.673 3.76422C186.903 3.95668 186.037 3.86045 185.267 4.05291C184.401 4.24538 183.535 4.34161 182.573 4.34161C182.477 4.34161 182.284 4.34161 182.188 4.43785C180.745 4.72655 179.301 4.82278 177.858 5.01524C176.222 5.20771 174.682 5.68888 173.046 5.68888C171.699 6.07381 170.255 5.88134 169.004 6.6512C169.004 6.74744 168.908 6.74744 168.908 6.6512C168.042 6.55497 167.272 6.84367 166.406 6.84367C166.021 6.84367 165.636 6.9399 165.155 7.03614C164.096 7.2286 163.038 7.5173 161.979 7.70976C160.632 7.99846 159.285 7.99846 157.841 8.28716C156.205 8.57586 154.665 9.05702 152.933 9.05702C152.837 9.05702 152.644 9.15326 152.452 9.15326C151.009 9.73066 149.373 9.92312 147.833 10.3081C147.448 10.4043 147.063 10.5968 146.582 10.5968C145.908 10.5968 145.138 10.693 144.465 10.9817C144.272 11.0779 143.984 11.1741 143.695 11.1741C142.348 11.1741 141 11.8478 139.557 11.8478C138.498 12.3289 136.959 11.8478 136.092 12.7139C135.996 12.8101 135.708 12.8101 135.515 12.8101C135.13 12.8101 134.745 12.9063 134.456 13.0026C133.783 13.195 133.205 13.4837 132.436 13.4837C132.051 13.4837 131.569 13.7724 131.185 13.9649C130.992 14.1574 130.896 14.1574 130.703 14.0611C130.126 13.9649 129.549 13.8687 129.067 14.3498C128.971 14.4461 128.875 14.5423 128.683 14.5423C128.105 14.2536 127.528 14.4461 127.047 14.6385C126.758 14.7348 126.373 14.9272 126.084 14.831C125.507 14.6385 125.026 15.1197 124.448 15.1197C123.871 15.1197 123.775 15.6971 123.39 15.9858C123.005 15.3122 122.427 15.6971 121.85 15.8896C121.561 15.9858 121.273 16.1783 120.984 16.082C120.406 15.8896 120.022 16.1783 119.54 16.3707C119.252 16.467 119.059 16.5632 118.771 16.5632C117.712 16.5632 116.653 16.8519 115.691 17.3331C115.306 17.5255 114.825 17.4293 114.44 17.5255C113.381 17.8142 112.323 18.1992 111.264 18.3916C110.206 18.5841 109.243 18.969 108.089 19.1615C107.511 19.2577 106.741 19.4502 106.741 20.22C106.741 20.3163 106.645 20.3163 106.645 20.3163C106.549 20.4125 106.453 20.4125 106.356 20.3163C106.26 20.0276 105.875 19.8351 105.587 20.0276C104.817 20.5087 103.662 20.22 102.796 21.0861C102.7 21.1824 102.507 21.1824 102.507 21.0861C101.93 20.7974 101.545 21.0861 100.967 21.2786C100.582 21.3748 100.005 21.6635 99.5239 21.7598C98.2729 22.0485 97.0219 22.4334 95.7709 22.8183C95.5784 22.8183 95.3859 22.9146 95.2897 23.107C95.001 23.6844 94.4236 23.492 93.9424 23.492C93.4613 23.492 92.9801 23.6844 92.6914 23.9731C92.4027 24.2618 92.114 24.3581 91.8253 24.3581C91.2479 24.3581 90.5743 24.3581 89.9969 24.5505C89.227 24.8392 88.3609 25.1279 87.591 25.5129C87.3986 25.5129 87.3024 25.7053 87.3986 25.8978C87.4948 26.1865 87.3024 26.3789 87.2061 26.4752L86.9174 26.2827C86.725 25.8015 86.725 25.8015 86.2438 25.994L85.5702 26.2827C84.3191 26.3789 83.1643 26.7639 82.0095 27.1488C81.4321 27.3413 80.8547 27.5337 80.3736 27.9187C80.0849 28.1111 79.6037 28.1111 79.4113 28.3998C79.0263 28.6885 78.7376 28.3998 78.4489 28.4961C77.9678 28.6885 77.3904 28.7848 77.1979 29.3622C77.6791 29.3622 78.1602 29.2659 78.1602 30.0358C78.1602 30.2283 78.3527 30.132 78.4489 29.9396C78.6414 29.7471 78.8339 29.7471 79.0263 29.8433H79.4113C79.8924 29.5546 80.3736 29.3622 80.8547 29.2659C81.2397 28.7848 81.8171 28.9772 82.2982 28.7848C82.4907 28.6885 82.6832 28.5923 82.8756 28.3998C83.1643 28.1111 83.453 28.4961 83.7417 28.3998L86.8212 27.3413C87.1099 27.1488 87.3024 26.8601 87.2061 26.5714H87.6873C88.3609 26.9563 88.8421 26.8601 89.4195 26.4752C89.9969 26.0903 90.7667 26.0903 91.3441 25.5129C91.4404 25.4166 91.7291 25.4166 91.8253 25.4166C92.4989 25.7053 93.0763 25.4166 93.75 25.1279C94.4236 24.8392 94.9047 24.2618 95.7709 24.5505C96.0595 24.6468 96.0596 23.9731 96.4445 24.1656C96.5407 24.0694 96.6369 23.9731 96.6369 23.7807C96.7332 23.6844 96.6369 23.5882 96.7332 23.492C96.7332 23.2033 97.0219 23.0108 97.2143 23.2995C97.7917 23.7807 98.4654 23.8769 99.139 23.5882C99.6202 23.3957 100.198 23.107 100.775 23.107C101.449 23.107 102.122 22.7221 102.603 22.3372C103.085 21.9522 103.373 21.856 103.854 22.0485C104.239 22.2409 104.432 21.9522 104.528 21.5673C104.624 21.2786 104.817 21.3748 104.913 21.5673C105.105 21.7598 105.298 21.7598 105.49 21.5673C105.779 21.2786 106.068 21.3748 106.356 21.4711L106.549 21.6635C106.549 21.7598 106.453 21.856 106.453 21.856C105.683 22.1447 105.009 22.4334 104.239 22.6259C103.469 22.8183 102.892 23.2033 102.026 23.492C101.352 23.6844 100.582 24.1656 99.9089 24.3581C98.2729 24.8392 96.7332 25.5129 95.2897 26.1865C94.0387 26.7639 92.7876 27.0526 91.6328 27.63C90.863 28.0149 90.0931 28.1111 89.4195 28.7848C89.3232 28.881 89.227 28.9772 89.0345 28.881C88.7458 28.7848 88.5534 28.881 88.3609 29.0735C87.1099 29.7471 85.7626 29.7471 84.7041 30.8057C84.6078 30.9019 84.4154 30.9019 84.2229 30.9019C83.6455 30.9019 83.1643 31.2868 82.6832 31.4793C82.1058 31.6718 81.5284 31.8642 81.0472 32.2492C80.4698 32.7303 79.7 32.8266 78.9301 33.2115C77.8715 33.7889 76.7167 34.1738 75.6582 34.8474C74.8883 35.3286 74.0222 35.6173 73.2523 36.0022C71.3277 36.9646 69.2106 37.7344 67.3821 38.9855C67.0934 39.1779 66.8047 39.2742 66.6123 39.4666C66.2273 39.8516 65.9387 40.044 65.4575 40.044C65.265 40.044 64.9763 40.2365 64.7839 40.3327C63.9178 40.7177 62.9554 41.1988 62.0893 41.68C61.2232 42.1611 60.5496 42.6423 59.7797 43.0272C58.9136 43.4122 58.1438 43.9896 57.3739 44.4707C55.2568 45.818 53.0434 46.9728 50.9263 48.2238C49.7715 48.8974 48.8092 49.6673 47.7506 50.2447C46.4996 50.9183 45.441 51.6882 44.2863 52.3618C42.2654 53.5166 40.5332 54.9601 38.6085 56.2111C36.9725 57.2697 35.4328 58.5207 33.8931 59.5793L32.2571 61.0228C31.6797 61.4077 31.0061 61.8889 30.5249 62.37C29.9475 62.755 29.4664 63.2362 28.889 63.7173C27.0606 65.257 25.4246 66.7968 23.4999 68.0478C23.2112 68.2403 23.0188 68.6252 22.6338 68.9139C21.0941 70.0687 19.8431 71.5122 18.3996 72.7632C17.341 73.7255 16.4749 74.7841 15.5126 75.8427C14.1654 77.2861 12.8181 78.7296 11.4708 80.2694C11.4708 80.2694 11.3746 80.3656 11.3746 80.4618C10.1236 82.0978 8.77631 83.6375 7.71775 85.4659C7.42905 85.9471 6.94788 86.4283 6.94788 87.1019C6.85165 87.1981 6.75542 87.3906 6.56295 87.5831C6.46672 87.7755 6.17802 87.968 6.08179 88.1605C5.60062 89.219 5.02322 90.1814 4.34959 91.1437C3.7722 92.0098 3.29103 93.0683 2.9061 94.0307C2.3287 95.5704 1.65507 97.2064 1.17391 98.7461C1.07768 99.0348 0.981444 99.2272 1.07768 99.5159C1.17391 99.7084 1.17391 99.9009 1.07768 100.093C0.692745 100.863 0.596512 101.729 0.404046 102.499C0.21158 103.365 -0.0771183 104.231 0.0191148 105.097C0.115347 105.675 0.115347 106.156 0.115347 106.733C-0.0771183 107.888 0.115347 108.947 0.115347 110.005C0.115347 110.102 0.21158 110.198 0.21158 110.294C0.21158 110.968 0.500279 111.641 0.692745 112.315C0.88521 112.892 0.88521 113.758 1.46261 114.24C1.46261 115.202 1.94377 116.068 2.6174 116.742C2.71364 116.838 2.9061 117.127 2.80987 117.223C2.6174 117.704 2.9061 117.896 3.09857 118.185C3.38727 118.378 3.57973 118.666 3.67596 118.955C4.25336 119.917 4.83076 120.783 5.40816 121.65C6.27425 122.997 7.33281 124.152 8.68007 125.018C8.96877 125.306 9.35371 125.595 9.54617 125.884C10.1236 126.75 10.8934 127.327 11.7595 127.808C12.1445 127.905 12.4332 128.193 12.7219 128.386C13.9729 129.637 15.5126 130.503 17.0523 131.465L17.8222 131.946C18.1109 132.331 18.3996 132.428 18.8808 132.62C19.1695 132.716 19.5544 132.813 19.7469 133.101C20.1318 133.679 20.5167 133.775 20.9979 134.064C21.5753 134.256 22.1527 134.448 22.6338 134.737C23.8849 135.507 25.2321 136.084 26.5794 136.854C27.0606 137.143 27.5417 137.335 28.0229 137.432C28.5041 137.528 28.9852 137.817 29.3701 138.105C29.8513 138.394 30.4287 138.49 30.9099 138.779C31.6797 139.26 32.5458 139.549 33.4119 139.741C33.9893 139.838 34.5667 140.03 35.0479 140.319C35.914 140.8 36.7801 141.377 37.7424 141.377C37.9349 141.377 38.2236 141.377 38.3198 141.473C38.801 141.955 39.5708 142.051 40.2445 142.243C40.8219 142.436 41.4955 142.725 42.0729 143.013C43.0352 143.494 43.9976 143.783 44.9599 144.072C46.4034 144.457 47.7506 144.745 49.0979 145.515C49.2904 145.708 49.5791 145.612 49.8678 145.612C49.964 145.612 50.1565 145.515 50.2527 145.612C50.5414 145.9 50.9263 145.996 51.215 145.996C51.6962 145.996 52.0811 146.093 52.3698 146.381C52.5623 146.478 52.7547 146.574 52.9472 146.574L55.738 147.344C56.989 147.729 58.3362 147.921 59.5873 148.402C59.6835 148.498 59.7797 148.402 59.876 148.498C60.3571 148.595 60.8383 148.595 61.2232 148.787C62.378 149.076 63.4366 149.461 64.5914 149.461C64.7839 149.461 64.9763 149.557 65.1688 149.557L66.9972 150.134C67.5746 150.231 68.152 150.231 68.6332 150.712C68.7294 150.808 68.9219 150.904 69.0181 150.808C69.4993 150.616 69.8842 150.808 70.3654 151.097C70.6541 151.289 71.039 151.289 71.4239 151.289C72.5787 151.289 73.8297 151.385 74.7921 152.155C74.8883 152.155 74.9845 152.155 75.0808 152.252C76.0431 152.444 77.0054 152.252 77.7753 152.829H77.9678C79.1226 152.829 80.1811 153.214 81.3359 153.214C81.6246 153.214 81.9133 153.31 82.1058 153.31C83.0681 153.31 83.9342 153.888 84.8965 153.888C85.089 153.888 85.3777 154.08 85.5702 154.176C85.7626 154.369 86.0513 154.369 86.34 154.272C86.5325 154.176 86.8212 154.272 87.0137 154.369C87.4948 154.561 87.976 154.85 88.5534 154.561C88.6496 154.465 88.8421 154.561 89.0345 154.561C90.7667 154.946 92.5952 155.427 94.5198 155.427C95.001 155.523 95.6746 155.523 96.1558 155.812C96.4445 156.005 96.8294 156.005 97.2143 155.908C98.3691 155.62 99.6202 156.101 100.775 156.486C100.967 156.486 101.064 156.582 101.256 156.582C101.93 156.39 102.603 156.678 103.181 156.775C103.951 156.871 104.721 157.159 105.49 157.159C106.26 157.159 107.126 157.159 107.8 157.352C108.666 157.448 109.436 157.641 110.302 157.641C110.879 157.641 111.361 158.026 111.938 157.929C112.515 157.833 113.093 158.218 113.67 158.026C114.248 157.833 114.729 158.41 115.21 158.507C116.365 158.507 117.519 158.892 118.674 158.892H119.252C119.637 159.084 120.118 159.084 120.503 159.084C121.369 159.084 122.139 159.084 123.005 159.277C123.582 159.373 124.063 159.469 124.641 159.469C125.218 159.469 125.796 159.469 126.373 159.565C127.239 159.758 128.009 159.758 128.875 159.95C129.645 160.143 130.511 160.143 131.281 160.143H131.666C132.532 160.528 133.494 160.431 134.36 160.624C134.745 160.72 135.13 160.624 135.419 160.624C135.996 160.624 136.477 160.528 136.959 160.816C137.247 160.913 137.536 161.009 137.825 160.913C138.113 160.72 138.306 160.72 138.594 160.913C138.883 161.009 139.076 161.105 139.364 161.009C139.942 160.816 140.423 160.913 141 161.201C141.097 161.297 141.289 161.297 141.385 161.201C142.348 160.913 143.31 161.49 144.176 161.105C144.272 161.105 144.368 161.105 144.465 161.201C145.138 161.586 145.812 161.682 146.582 161.394C146.871 161.297 147.159 161.49 147.448 161.49C148.218 161.682 148.988 161.875 149.758 161.875C150.335 161.875 150.912 162.164 151.49 161.971C152.067 161.779 152.548 161.971 153.126 161.971C153.799 161.971 154.473 161.875 155.147 162.164C155.531 162.356 155.916 162.26 156.301 162.26C157.456 162.26 158.611 162.356 159.766 162.356C160.247 162.356 160.632 162.548 161.017 162.548C161.305 162.548 161.594 162.356 161.883 162.452C162.268 162.548 162.653 162.548 162.941 162.548C163.519 162.548 164.192 162.645 164.674 162.548C165.155 162.452 165.54 162.452 165.925 162.645C166.31 162.837 166.598 162.741 166.983 162.645C167.561 162.549 168.042 162.356 168.619 162.548C169.197 162.164 169.774 162.645 170.255 162.645C171.025 162.645 171.795 163.03 172.565 162.741C173.142 162.548 173.816 162.548 174.393 162.837C174.586 162.933 174.874 162.933 175.067 162.933H176.799C177.28 162.933 177.954 163.126 178.339 162.548C178.339 162.452 178.531 162.548 178.531 162.548C178.724 162.645 178.916 162.933 179.109 162.837C179.878 162.645 180.841 163.415 181.514 162.741C181.611 162.645 181.803 162.837 181.996 162.837C182.284 162.837 182.573 162.933 182.862 162.933H186.615C187.288 162.933 187.866 162.933 188.539 162.837C189.117 162.452 189.79 162.837 190.368 162.933C191.811 163.126 193.255 162.933 194.698 162.933C196.238 162.933 197.778 162.741 199.221 162.741C199.414 162.741 199.606 162.645 199.702 162.741C200.568 163.03 201.435 162.645 202.301 162.548C202.589 162.452 202.782 162.356 203.071 162.452C203.359 162.548 203.648 162.548 203.937 162.548C204.899 162.548 205.861 162.645 206.727 162.452C207.497 162.26 208.171 162.356 208.941 162.356C209.711 162.356 210.48 162.26 211.25 161.971H211.828C213.56 161.971 215.1 161.682 216.832 161.682C217.505 161.586 218.179 161.297 218.949 161.586C219.045 161.586 219.238 161.586 219.334 161.49C219.623 161.201 219.911 161.201 220.2 161.297C220.777 161.49 221.355 161.394 221.932 161.201C222.317 161.105 222.702 161.009 223.183 161.105C223.376 161.201 223.568 161.201 223.761 161.201C224.338 161.201 224.915 160.913 225.397 160.72C225.781 160.528 225.974 160.528 226.263 160.816C226.648 161.201 227.225 161.105 227.61 160.913C227.995 160.72 228.38 160.72 228.861 160.72C230.304 160.72 231.748 160.335 233.191 160.335H233.865C234.25 160.143 234.731 160.046 235.212 160.239C235.309 160.239 235.597 160.239 235.693 160.143C236.175 159.662 236.752 159.854 237.329 159.854C238.099 159.854 238.869 159.854 239.639 159.758C241.564 159.469 243.392 159.18 245.317 158.988C246.856 158.795 248.396 158.699 249.84 158.41C250.321 158.314 250.898 158.314 251.379 158.218L252.534 157.929C252.919 157.833 253.208 157.737 253.593 157.833C254.363 158.026 255.036 157.929 255.614 157.352C255.902 157.063 256.095 157.159 256.384 157.159C256.768 157.159 257.153 157.352 257.442 157.063C257.635 156.967 257.731 156.775 257.923 156.871C258.501 157.159 259.078 157.063 259.655 156.967L262.254 156.39C262.542 156.39 262.927 156.197 263.312 156.197C264.756 156.197 266.103 155.62 267.547 155.523C268.316 155.042 269.183 155.139 269.952 155.139C270.337 155.139 270.722 155.042 271.011 154.946C272.07 154.561 273.032 154.369 274.09 154.176C275.534 153.888 276.881 153.503 278.325 153.31C279.191 153.214 280.057 152.925 280.923 152.829C281.597 152.733 282.366 152.637 282.944 152.155C283.136 152.059 283.329 151.963 283.521 151.963C283.906 151.963 284.291 151.963 284.676 151.867L286.889 151.289C288.91 150.808 290.835 150.616 292.76 149.846C293.241 149.653 293.818 149.461 294.299 149.365C295.647 149.076 296.898 148.402 298.245 148.402C298.341 148.402 298.437 148.306 298.534 148.306C299.207 147.825 300.073 147.825 300.843 147.536C301.709 147.247 302.479 146.863 303.441 146.863C303.826 146.863 304.115 146.766 304.5 146.574C306.328 145.612 308.542 145.227 310.563 144.553C312.102 144.072 313.642 143.687 315.086 143.013C316.433 142.725 317.588 141.762 318.935 141.762C319.127 141.762 319.32 141.666 319.512 141.666C320.571 141.185 321.629 140.704 322.592 140.415C323.169 140.222 323.843 140.03 324.324 139.741C324.709 139.645 324.998 139.453 325.383 139.453C325.575 139.356 325.864 139.356 326.056 139.164C327.307 138.394 328.943 138.394 330.098 137.528C330.868 137.528 331.445 137.143 332.023 136.854C332.696 136.566 333.274 136.662 333.851 136.084C333.947 135.988 334.14 135.988 334.332 135.988C334.717 135.988 335.006 135.796 335.295 135.7C335.776 135.411 336.161 135.218 336.642 135.026C337.989 134.448 339.336 134.064 340.684 133.486C342.801 132.62 344.918 131.946 346.939 130.792C347.805 130.31 348.671 129.829 349.633 129.444C350.499 129.059 351.269 128.771 352.039 128.386L353.29 127.808C355.022 127.039 356.851 126.172 358.487 125.306C359.257 124.921 360.123 124.44 360.796 123.959C361.566 123.478 362.336 123.093 363.106 122.708C363.683 122.419 364.164 122.131 364.646 121.842C365.415 121.361 366.378 120.976 367.148 120.398C367.533 120.11 367.725 119.629 368.302 119.629C368.88 119.629 368.976 119.051 369.457 118.955C370.035 118.859 370.516 118.474 370.997 118.185C371.189 117.993 371.093 117.608 371.382 117.511C372.248 117.415 372.825 116.742 373.595 116.357C374.365 115.972 374.942 115.009 375.809 115.009C375.905 115.009 376.001 114.913 376.097 114.817C376.675 114.24 377.252 113.951 377.829 113.373C377.926 113.277 378.118 113.085 378.214 113.085C378.888 113.085 379.081 112.604 379.562 112.315C380.139 111.738 380.813 111.353 381.486 110.775C382.064 110.294 382.737 110.005 383.219 109.428C384.085 109.235 384.566 108.466 385.143 107.888C385.432 107.696 385.817 107.503 386.009 107.311C386.202 107.215 386.298 107.022 386.298 106.926C386.298 106.541 386.49 106.348 386.779 106.252C387.068 106.06 387.068 105.675 387.453 105.579C388.511 105.29 389.185 104.52 389.955 103.846C390.821 103.077 391.398 102.114 392.361 101.441C392.649 101.248 392.842 101.056 393.034 100.863C393.708 100.19 394.093 99.3235 394.959 99.0348C395.248 98.9385 394.959 98.5536 394.863 98.3612C394.67 98.3612 394.67 98.3612 394.766 98.2649C394.285 98.1687 393.419 98.0725 393.034 98.1687ZM413.051 61.6002C413.243 60.9266 412.666 60.4454 412.666 59.7718C412.666 59.6755 412.57 59.5793 412.57 59.4831C412.473 59.2906 412.666 59.1944 412.762 59.1944C412.954 59.0019 413.051 58.8094 412.954 58.617C412.281 57.3659 412.762 55.73 412.185 54.3827V53.9016L411.607 51.207C411.415 50.2447 410.934 49.4748 410.549 48.6087C410.452 48.4163 410.356 48.1276 410.356 47.8389C410.356 47.069 410.067 46.3954 409.683 45.6255C409.298 44.9519 409.009 44.2783 408.432 43.7009L408.143 43.1235L407.181 41.3913C406.892 40.7177 406.314 40.2365 405.929 39.6591L405.352 38.8892C404.486 37.7344 403.62 36.3872 402.465 35.4248C401.791 34.8474 401.214 34.3663 400.733 33.6926C400.444 33.3077 399.963 33.019 399.674 32.5379C399.386 32.0567 398.904 31.8642 398.52 31.5755C398.038 31.1906 397.557 30.9019 397.172 30.517C395.825 29.1697 394.285 28.0149 392.553 27.1488C392.361 27.0526 392.168 26.7639 391.976 26.6676C391.591 26.4752 391.398 25.8015 390.917 25.7053C390.243 25.7053 390.147 25.0317 389.666 24.8392C389.089 24.6468 388.511 24.4543 388.03 23.9731C387.838 23.7807 387.549 23.7807 387.357 23.9731C387.164 24.0694 386.972 24.0694 386.683 24.1656C386.779 23.9731 386.972 23.7807 386.972 23.5882C386.972 23.3957 386.683 23.2995 386.587 23.107L386.009 22.8183C385.528 22.7221 385.143 22.4334 384.662 22.1447C384.181 21.856 383.603 21.6635 383.122 21.3748C382.641 21.6635 382.449 21.3748 382.16 20.9899C381.871 20.605 381.583 20.5087 381.294 20.4125C380.428 20.1238 379.658 19.8351 379.081 19.2577C378.984 19.0652 378.696 19.0652 378.503 18.969C377.06 18.5841 375.712 17.8142 374.365 17.2368C373.884 17.0444 373.403 16.8519 372.922 16.8519C372.729 16.8519 372.537 16.7557 372.44 16.7557C371.767 16.082 370.708 15.8896 369.938 15.5046C369.553 15.3122 369.265 15.3122 368.976 15.5046C368.784 15.6009 368.591 15.6971 368.399 15.6971C368.206 15.5046 368.302 14.9272 367.725 14.9272C367.629 14.9272 367.533 14.9272 367.436 14.831C366.859 14.6385 366.282 14.4461 365.704 14.1574L365.512 14.2536C365.223 14.7348 365.031 14.4461 364.934 14.2536C364.357 13.0988 363.395 12.9063 362.24 13.195C362.047 13.2913 361.855 13.2913 361.662 13.195C361.47 13.0026 361.181 12.9063 360.892 12.7139C360.604 12.5214 360.411 12.6176 360.219 12.8101C360.123 12.9063 360.026 13.0026 359.93 13.0026C359.738 12.9063 359.834 12.7139 359.93 12.5214C359.93 12.4252 360.123 12.2327 359.834 12.1365C359.449 12.0402 358.968 11.7516 358.487 11.944C358.39 11.944 358.39 12.0402 358.487 12.1365C358.679 12.3289 358.775 12.3289 358.775 12.6176C358.679 12.8101 358.487 13.0026 358.679 13.195C358.775 13.2913 359.064 13.3875 359.257 13.3875C359.738 13.58 360.219 13.8687 360.7 13.58C360.892 13.4837 360.989 13.58 361.085 13.7724C361.277 14.2536 361.759 14.2536 362.24 14.2536C362.528 14.2536 362.913 14.1574 363.106 14.1574C363.395 14.2536 363.587 14.6385 363.779 14.831C363.876 14.9272 363.972 15.1197 364.164 15.1197C364.838 15.1197 365.512 15.6009 366.282 15.5046C366.474 15.4084 366.57 15.4084 366.763 15.6971C366.955 15.9858 367.244 16.1783 367.629 16.1783C367.917 16.1783 368.206 16.2745 368.399 16.467C368.687 16.7557 368.976 16.7557 369.361 16.8519C369.842 16.8519 370.42 17.0444 370.804 17.3331C371.189 17.6218 371.671 17.718 372.056 17.8142C372.537 17.8142 372.922 18.0067 373.21 18.2954C373.499 18.5841 373.691 18.5841 373.98 18.7765C374.558 18.969 375.135 19.0652 375.616 19.4502C376.001 19.7389 376.578 19.9313 377.156 20.1238C377.445 20.22 377.637 20.4125 378.022 20.4125C378.214 20.4125 378.503 20.4125 378.696 20.605C378.984 20.8937 379.177 21.0861 379.562 21.1824C379.85 21.2786 380.139 21.2786 380.235 21.4711C380.62 21.856 381.005 21.7598 381.39 21.7598C381.583 21.7598 381.775 21.6635 381.871 21.6635C382.064 21.7598 382.064 22.0485 382.064 22.2409C382.16 22.5296 382.256 22.6259 382.545 22.8183C383.122 23.2033 383.892 23.107 384.277 23.6844C385.047 23.8769 385.624 24.5505 386.49 24.3581C386.49 24.5505 386.49 24.8392 386.683 24.9355C387.068 25.1279 387.549 25.2242 387.934 25.5129C388.319 25.8015 388.511 26.1865 388.896 26.4752L389.57 26.7639C390.243 27.0526 390.725 27.3413 391.206 27.7262C392.361 28.6885 393.515 29.4584 394.67 30.3245C395.344 30.8057 395.921 31.2868 396.499 31.768C397.846 32.9228 399.097 34.1738 400.348 35.4248C400.733 35.8098 401.118 36.1947 401.599 36.5796C401.984 36.8683 402.465 37.2533 402.658 37.7344C403.042 38.6968 403.909 39.2742 404.486 39.9478C404.678 40.3327 405.256 40.3327 405.256 40.9101C405.256 41.3913 405.929 41.5837 405.929 42.0649C405.929 42.3536 406.122 42.6423 406.411 42.931C406.699 43.2197 406.796 43.4122 406.988 43.7971C407.181 44.182 407.277 44.567 407.469 44.9519C407.854 45.6255 408.335 46.2992 408.624 47.069C408.816 47.6464 409.009 48.1276 409.298 48.6087C409.394 48.8012 409.49 48.8974 409.49 49.0899C409.49 50.2447 410.452 51.207 410.356 52.4581L410.452 52.5543C411.03 53.1317 410.741 53.9978 410.934 54.6714C411.03 55.0564 410.934 55.5375 411.126 55.9224C411.415 56.5961 411.415 57.2697 411.222 57.9433C411.126 58.3283 411.126 58.617 411.415 58.9057C411.607 59.0981 411.511 59.3868 411.415 59.6755C411.319 60.0605 411.126 60.5416 411.319 61.0228C411.607 61.6964 411.222 62.3701 411.222 63.0437C411.222 63.3324 411.03 63.6211 411.126 64.006C411.222 64.4872 410.837 65.0646 411.126 65.5457C411.126 65.642 411.126 65.7382 411.03 65.8344C410.645 66.2194 410.837 66.7005 410.837 67.1817C410.837 67.5666 410.934 67.8553 410.452 68.3365C410.26 68.529 410.26 68.9139 410.164 69.2988C409.875 70.2611 410.067 71.2235 409.971 72.0896C409.875 72.282 409.875 72.4745 409.683 72.5707C409.105 72.8594 408.913 73.3406 408.816 73.8218C408.816 74.4954 408.624 75.0728 408.239 75.554C407.854 76.0351 407.758 76.6125 407.662 77.1899C407.565 77.5749 407.469 77.8635 407.277 78.056C407.084 78.2485 406.988 78.441 406.892 78.5372C406.507 79.2108 406.314 79.9807 405.833 80.5581C405.352 81.1355 405.256 82.0016 404.678 82.4827C404.678 82.9639 404.486 83.1564 404.101 83.5413C403.909 83.7338 403.716 84.1187 403.812 84.4074C403.909 84.6961 403.909 84.7923 403.62 84.8886C403.427 84.8886 403.235 84.9848 403.235 85.081C402.946 85.466 402.658 85.9471 402.658 86.332C402.658 86.717 402.465 86.9094 402.176 87.0057C401.599 87.1981 401.214 87.6793 400.925 88.2567C400.829 88.4492 400.733 88.6416 400.637 88.7379C399.771 89.604 399.001 90.6625 398.423 91.8173C398.327 92.0098 398.135 92.2985 397.846 92.3947C397.461 92.491 397.268 92.8759 396.98 93.2608C396.691 93.6458 396.499 94.1269 396.21 94.3194C395.44 94.8005 395.055 95.5704 394.67 96.3403C394.574 96.5327 394.382 96.7252 394.189 96.8214L393.515 97.2064C393.515 97.4951 393.708 97.5913 393.9 97.6875C394.189 97.88 394.574 97.9762 394.766 98.1687C395.151 97.9762 396.114 97.5913 396.402 97.3026C396.787 96.9177 397.268 96.629 397.461 95.9553V95.6666C397.461 95.3779 397.557 95.3779 397.846 95.3779C398.135 95.3779 398.327 95.1855 398.423 94.8968C399.193 94.0307 399.867 93.1646 400.54 92.2985L401.503 91.0475C402.08 90.2776 402.658 89.5077 403.139 88.7379C404.101 87.1981 404.871 85.466 406.218 84.1187L406.314 84.0225C406.507 83.1564 406.988 82.4827 407.565 81.8091C407.565 81.8091 407.662 81.6166 407.565 81.5204C407.181 81.1355 407.469 81.0392 407.758 81.0392C407.854 81.0392 407.95 80.8468 408.047 80.7505L409.201 78.1522C409.586 77.3824 409.875 76.4201 410.164 75.554C410.356 74.9766 410.645 74.3029 410.837 73.6293C411.03 72.9557 411.222 72.282 411.511 71.6084C411.8 70.9348 411.703 70.2612 412.088 69.6838V69.2026C412.088 68.8176 412.088 68.3365 412.281 67.8553C412.473 67.4704 412.377 67.0855 412.473 66.7005C412.762 65.5457 412.762 64.4872 412.762 63.4286C412.762 63.3324 412.762 63.3324 412.858 63.2362C413.339 62.755 412.858 62.1776 413.051 61.6002ZM75.9469 30.0358C75.7544 30.4207 75.6582 29.9396 75.5619 29.8433C75.2732 29.5546 74.9845 29.7471 74.6958 29.8433C74.4071 30.0358 74.3109 30.3245 73.926 30.3245C73.3486 30.3245 73.0599 30.517 72.7712 30.9981C72.6749 31.2868 72.3863 31.1906 72.1938 31.0944C71.9051 30.9981 71.7126 30.9981 71.6164 31.1906C71.4239 31.5755 71.1352 31.3831 70.8465 31.3831C70.1729 31.3831 69.5955 31.6718 69.1143 32.1529C68.9219 32.3454 68.9219 32.3454 68.7294 32.3454C67.6708 32.3454 66.8047 33.019 65.8424 33.4039C65.3613 33.5964 64.8801 33.8851 64.6876 34.4625C64.9763 34.655 65.1688 34.8474 65.3613 34.8474C65.9387 34.8474 66.4198 34.7512 66.8047 34.4625C66.8047 33.9813 67.0934 34.0776 67.4784 34.0776C67.6708 34.0776 67.9595 33.9813 68.0558 33.8851L68.9219 33.1153C69.1143 32.9228 69.3068 32.8266 69.403 33.2115C69.4993 33.2115 69.4993 33.3077 69.5955 33.3077C70.0767 33.019 70.7503 33.3077 71.3277 32.7303C71.7126 32.3454 72.29 32.1529 72.8674 32.1529C73.1561 32.1529 73.3486 32.0567 73.541 31.768C73.6373 31.5755 73.7335 31.4793 73.926 31.2868C74.1184 31.0944 74.3109 30.9019 74.5996 31.1906C74.7921 31.3831 75.0808 31.2868 75.2732 31.0944C75.5619 30.8057 75.9469 30.6132 76.428 30.6132C77.1979 30.6132 77.1979 30.517 77.1979 29.6509V29.3622C76.6205 29.2659 76.2356 29.4584 75.9469 30.0358ZM62.763 34.9437C62.5705 35.0399 62.5705 35.2324 62.5705 35.3286C62.5705 35.8098 62.378 35.906 61.8969 35.906C61.7044 35.906 61.7044 35.8098 61.7044 35.6173C61.7044 35.4248 61.5119 35.3286 61.4157 35.4248C61.3195 35.5211 61.2232 35.7135 61.2232 35.8098C61.2232 36.0985 61.0308 36.1947 60.8383 36.0022C60.6458 35.8098 60.4534 35.7135 60.1647 36.0022C59.9722 36.0985 59.7797 36.2909 59.5873 36.2909C58.9136 36.2909 58.4325 36.7721 57.7589 37.0608C57.6626 37.157 57.6626 37.3495 57.5664 37.4457V38.2156C57.5664 38.2156 57.6626 38.4081 57.7589 38.4081C58.1438 38.2156 58.6249 38.1194 58.7212 37.542C58.8174 36.9646 59.1061 36.7721 59.7797 36.7721C60.0684 36.7721 60.3571 36.8683 60.6458 36.8683C61.8969 36.5796 63.0517 36.0022 64.3027 35.6173C64.5914 35.5211 64.6876 35.3286 64.6876 35.0399V34.4625C64.4952 34.3663 64.3989 34.27 64.2065 34.27C63.7253 34.27 63.1479 34.5587 62.763 34.9437ZM394.863 98.2649C394.863 98.2649 394.863 98.1687 394.766 98.1687V98.2649H394.863ZM394.863 98.2649L394.959 98.3612C395.151 98.3612 395.151 98.3612 394.863 98.2649Z" fill="#2E90FA"/>
</svg>
