<svg width="29" height="33" viewBox="0 0 29 33" fill="none" xmlns="http://www.w3.org/2000/svg">
<g clip-path="url(#clip0_10_6)">
<path fill-rule="evenodd" clip-rule="evenodd" d="M14.5003 0C16.014 0 17.3001 1.95776 18.1574 5.12134C18.4548 6.21973 18.7093 7.47388 18.9103 8.84619C20.1963 8.33594 21.4073 7.93042 22.5031 7.6377C25.6619 6.7998 27.9955 6.93945 28.7538 8.25269C29.5093 9.56592 28.4617 11.6606 26.1576 13.9836C25.3592 14.7893 24.4027 15.6379 23.3149 16.5C23.749 16.8437 24.1642 17.1875 24.5554 17.5259C24.1991 17.7756 23.907 18.106 23.7034 18.4927C23.2533 18.1033 22.771 17.7085 22.262 17.3083C22.1575 17.3862 22.0503 17.4641 21.9432 17.5447C21.7127 19.207 20.9411 20.6948 19.8132 21.8254L19.7489 21.8845C19.5506 22.0779 19.3443 22.2605 19.1273 22.4297C19.1139 22.564 19.0978 22.6982 19.0817 22.8325C20.4294 23.3804 21.694 23.8101 22.83 24.1108C25.4047 24.793 27.2079 24.844 27.6365 24.1028C27.8643 23.708 27.7035 23.0876 27.2239 22.3088C27.6124 22.1396 27.9554 21.8818 28.2286 21.5623C29.0029 22.8325 29.22 23.9363 28.7538 24.7446C27.9982 26.0605 25.6673 26.2002 22.5058 25.3623C21.41 25.0723 20.199 24.6641 18.9103 24.1538C18.7093 25.5261 18.4548 26.7803 18.1574 27.8787C17.3001 31.0422 16.014 33 14.5003 33C12.9865 33 11.7005 31.0422 10.8431 27.8787C10.5457 26.7803 10.2912 25.5261 10.0902 24.1538C9.62405 24.3391 9.16859 24.511 8.72651 24.6667C8.69168 24.2183 8.54968 23.802 8.32731 23.4395C8.84172 23.2568 9.37221 23.0554 9.91877 22.8325C9.90269 22.7009 9.8893 22.5667 9.87322 22.4324C9.63477 22.2444 9.40704 22.043 9.1927 21.8281L9.18734 21.8228C8.05938 20.6921 7.28776 19.2043 7.05735 17.542C6.95018 17.4641 6.84301 17.3835 6.73852 17.3057C5.58913 18.2026 4.58442 19.0862 3.75654 19.9214C1.87572 21.8228 0.929949 23.3643 1.35863 24.1082C1.59708 24.5217 2.26153 24.6882 3.24748 24.6372C3.23945 24.7178 3.23677 24.801 3.23677 24.8843C3.23677 25.2361 3.30375 25.5718 3.42163 25.8806C1.84893 25.9504 0.726327 25.5906 0.244065 24.7527C-0.511478 23.4368 0.536102 21.342 2.84024 19.019C3.64133 18.2134 4.59514 17.3647 5.68291 16.5027C4.59782 15.6406 3.64133 14.792 2.84024 13.9863C0.536102 11.6633 -0.511478 9.5686 0.244065 8.25537C1.00229 6.94214 3.33322 6.80249 6.49471 7.64038C7.59052 7.93042 8.80153 8.33594 10.0902 8.84888C10.1626 8.35205 10.243 7.87134 10.3287 7.40942C10.7011 7.59741 11.1191 7.70215 11.5638 7.70215H11.5879C11.4888 8.2312 11.4004 8.78711 11.32 9.36182C11.4406 9.41284 11.5585 9.46655 11.679 9.52026C12.5498 9.16577 13.5009 8.96973 14.4976 8.96973C15.4943 8.96973 16.4481 9.16577 17.3188 9.51758C17.4367 9.46387 17.5573 9.41284 17.6751 9.36182C17.4742 7.91431 17.2143 6.60107 16.9062 5.46509C16.2096 2.89233 15.3523 1.2998 14.4976 1.2998C14.0234 1.2998 13.5464 1.79126 13.099 2.66675C12.7534 2.43311 12.3542 2.27466 11.9202 2.21826C12.6516 0.802979 13.5277 0 14.5003 0ZM14.5003 12.1387C16.3918 12.1387 17.927 12.8584 17.927 13.7446C17.927 14.6335 16.3918 15.3506 14.5003 15.3506C12.6087 15.3506 11.0735 14.6309 11.0735 13.7446C11.0735 12.8584 12.6087 12.1387 14.5003 12.1387ZM11.0735 18.165V19.3977C11.6844 21.5676 17.7046 21.1487 17.927 19.2876V18.0549C17.6269 20.0986 11.5558 20.2463 11.0735 18.165ZM11.0574 14.5181V15.7239C11.6683 17.8428 17.7234 17.5581 17.9457 15.74V14.5369C17.643 16.5322 11.5397 16.551 11.0574 14.5181ZM11.0574 16.2932V17.5259C11.6683 19.6958 17.7234 19.4031 17.9457 17.542V16.3093C17.643 18.353 11.5397 18.3745 11.0574 16.2932ZM14.5003 10.0466C18.0556 10.0466 20.9384 12.9363 20.9384 16.5C20.9384 20.0637 18.0556 22.9534 14.5003 22.9534C10.9449 22.9534 8.06206 20.0637 8.06206 16.5C8.06206 12.9363 10.9449 10.0466 14.5003 10.0466ZM19.1273 10.5649C19.3684 10.7529 19.5988 10.957 19.8132 11.1746C20.9411 12.3052 21.7127 13.7957 21.9432 15.458C22.0503 15.5359 22.1575 15.6138 22.262 15.6943C23.4114 14.7974 24.4161 13.9138 25.244 13.0786C27.1194 11.1853 28.0652 9.6438 27.6392 8.8999C27.2105 8.15869 25.4074 8.20972 22.8327 8.89185C21.6967 9.19263 20.4321 9.62231 19.0844 10.1729C19.0978 10.2991 19.1139 10.4333 19.1273 10.5649ZM17.3108 23.4878C16.4427 23.8396 15.4943 24.033 14.5029 24.033C13.5089 24.033 12.5605 23.8396 11.6924 23.4851C11.5692 23.5388 11.4459 23.5952 11.3227 23.6462C11.5236 25.0938 11.7835 26.407 12.0916 27.543C12.7882 30.1157 13.6456 31.7083 14.5029 31.7083C15.3576 31.7083 16.2176 30.1157 16.9116 27.543C17.217 26.407 17.4769 25.0911 17.6778 23.6462C17.5546 23.5952 17.4313 23.5415 17.3108 23.4878ZM7.06003 15.4526C7.29044 13.793 8.06206 12.3025 9.19002 11.1746L9.25432 11.1155C9.4499 10.9248 9.65621 10.7422 9.87054 10.573C9.88394 10.4387 9.90002 10.3044 9.91609 10.1702C8.56576 9.62231 7.30384 9.19263 6.16785 8.88916C3.5931 8.20703 1.78998 8.15601 1.3613 8.89722C0.929949 9.64111 1.87572 11.1826 3.75386 13.0759C4.58174 13.9111 5.58645 14.7947 6.73584 15.6917C6.84301 15.6111 6.95018 15.5332 7.06003 15.4526ZM25.9352 17.926C26.9185 17.926 27.7169 18.7263 27.7169 19.7119C27.7169 20.6975 26.9185 21.4978 25.9352 21.4978C24.9519 21.4978 24.1535 20.6975 24.1535 19.7119C24.1535 18.7263 24.9493 17.926 25.9352 17.926ZM5.98834 23.042C6.97162 23.042 7.77003 23.8423 7.77003 24.8279C7.77003 25.8135 6.97162 26.6138 5.98834 26.6138C5.00506 26.6138 4.20665 25.8135 4.20665 24.8279C4.20665 23.8423 5.00506 23.042 5.98834 23.042ZM11.5611 3.1582C12.5444 3.1582 13.3428 3.9585 13.3428 4.94409C13.3428 5.92969 12.5444 6.72998 11.5611 6.72998C10.5779 6.72998 9.77945 5.92969 9.77945 4.94409C9.77945 3.9585 10.5779 3.1582 11.5611 3.1582Z" fill="#4285F4"/>
</g>
<defs>
<clipPath id="clip0_10_6">
<rect width="29" height="33" fill="white"/>
</clipPath>
</defs>
</svg>
