<svg width="50" height="30" viewBox="0 0 50 30" fill="none" xmlns="http://www.w3.org/2000/svg">
<g clip-path="url(#clip0_10_11)">
<path d="M7.93262 3.46323H20.7334V1.00571C20.7334 0.450024 21.1826 0 21.7373 0H29.2383C29.793 0 30.2422 0.450024 30.2422 1.00571V3.46323H42.0693C42.2725 2.88423 42.6029 2.35833 43.0361 1.92434L43.0439 1.91652C43.7832 1.17887 44.8008 0.721996 45.9209 0.721996C47.041 0.721996 48.0596 1.17985 48.8008 1.91945L48.8076 1.92728C49.5449 2.66884 50 3.68727 50 4.80939C50 5.93445 49.543 6.95483 48.8047 7.69444L48.8027 7.6964L48.8047 7.69933C48.0664 8.43796 47.0469 8.89581 45.9209 8.89581C44.7939 8.89581 43.7744 8.43796 43.0361 7.69933L42.9639 7.62009C42.5662 7.20038 42.2614 6.70133 42.0693 6.15555H36.3896C38.2502 7.23292 39.9436 8.57699 41.416 10.1451C44.3828 13.306 46.457 17.3866 47.2148 22.0747H48.7412C49.4072 22.0747 49.9463 22.6157 49.9463 23.2829V28.7928C49.9463 29.459 49.4072 30 48.7412 30H43.3047C42.6387 30 42.0986 29.459 42.0986 28.7928V23.2829C42.0986 22.6157 42.6387 22.0747 43.3047 22.0747H44.499C43.7764 18.1194 41.9854 14.6737 39.4629 11.9863C36.9883 9.34975 33.8086 7.44106 30.2422 6.49503V8.61308C30.2422 9.16778 29.793 9.61878 29.2383 9.61878H21.7373C21.1826 9.61878 20.7334 9.16778 20.7334 8.61308V6.5009C17.085 7.4841 13.8457 9.47204 11.3516 12.2211C8.94434 14.8714 7.23047 18.2299 6.50684 22.0747H7.67187C8.33691 22.0747 8.87695 22.6157 8.87695 23.2829V28.7928C8.87695 29.459 8.33691 30 7.67187 30H2.23535C1.56934 30 1.0293 29.459 1.0293 28.7928V23.2829C1.0293 22.6157 1.56934 22.0747 2.23535 22.0747H3.78711C4.54785 17.5118 6.53418 13.5311 9.36621 10.4112C10.8932 8.7294 12.6704 7.29393 14.6348 6.15555H7.93066C7.72746 6.73455 7.39707 7.26045 6.96387 7.69444L6.95703 7.70129C6.2168 8.43992 5.19922 8.89581 4.08008 8.89581C2.95898 8.89581 1.94043 8.43894 1.19922 7.69835L1.19238 7.69151C0.455078 6.94994 0 5.93054 0 4.80939C0 3.68629 0.456055 2.66591 1.19531 1.92434L1.20215 1.91652C1.94238 1.17887 2.95996 0.721996 4.08008 0.721996C5.20117 0.721996 6.22168 1.18082 6.96191 1.92141L6.96387 1.91945C7.39355 2.34991 7.72754 2.87624 7.93262 3.46323Z" fill="#4285F4"/>
</g>
<defs>
<clipPath id="clip0_10_11">
<rect width="50" height="30" fill="white"/>
</clipPath>
</defs>
</svg>
