<svg width="31" height="33" viewBox="0 0 31 33" fill="none" xmlns="http://www.w3.org/2000/svg">
<g clip-path="url(#clip0_10_18)">
<path d="M17.5437 2.39532C18.0921 3.34064 18.4676 5.68512 18.6649 8.78961H22.1687V5.49444C22.0931 5.45953 22.0201 5.41925 21.9499 5.37359C21.8175 5.29034 21.696 5.19366 21.5906 5.08893L21.5771 5.0755C21.3907 4.8902 21.2421 4.6673 21.1395 4.42022C21.0368 4.17584 20.9801 3.90729 20.9801 3.6253C20.9801 3.34601 21.0368 3.08014 21.1395 2.83307C21.2448 2.57794 21.4015 2.34967 21.5906 2.15899C21.7824 1.96832 22.012 1.81524 22.2687 1.71051C22.5145 1.60846 22.7847 1.55206 23.0656 1.55206C23.3466 1.55206 23.614 1.60846 23.8626 1.71051C24.1192 1.81524 24.3489 1.97101 24.5407 2.15899C24.7325 2.34967 24.8865 2.57794 24.9918 2.83038L24.9972 2.84649C25.0945 3.08819 25.1485 3.35138 25.1485 3.62262C25.1485 3.90191 25.0918 4.16778 24.9891 4.41485C24.8838 4.66998 24.7271 4.89825 24.538 5.08893L24.5218 5.10504C24.4272 5.19635 24.3218 5.28229 24.2111 5.3548C24.1517 5.39508 24.0895 5.42999 24.0247 5.4649V9.71881C24.0247 9.97394 23.9193 10.2049 23.7518 10.3714C23.5843 10.5379 23.352 10.6426 23.0954 10.6426H18.7567C18.7891 11.5262 18.8107 12.4554 18.8188 13.4141H27.0423C27.0774 13.3443 27.1152 13.2772 27.1557 13.2127L27.1666 13.1993C27.2449 13.0784 27.3368 12.9683 27.434 12.8716C27.6258 12.681 27.8554 12.5279 28.1121 12.4232L28.1283 12.4178C28.3714 12.3211 28.6362 12.2647 28.909 12.2647C29.19 12.2647 29.4574 12.3211 29.706 12.4232C29.9626 12.5279 30.1923 12.6837 30.3841 12.8716C30.5759 13.0623 30.7299 13.2906 30.8352 13.5457C30.9379 13.7928 30.9946 14.0587 30.9946 14.338C30.9946 14.6172 30.9379 14.8831 30.8352 15.1302C30.7299 15.3853 30.5732 15.6136 30.3841 15.8043C30.1923 15.9949 29.9626 16.148 29.706 16.2527L29.6898 16.2581C29.4466 16.3548 29.1819 16.4085 28.909 16.4085C28.6281 16.4085 28.3579 16.3521 28.1121 16.2501C27.8581 16.1453 27.6285 15.9922 27.434 15.8016C27.3313 15.6995 27.2395 15.5867 27.1584 15.4605C27.1152 15.3961 27.0774 15.3289 27.0423 15.2591H18.8215C18.8134 16.3065 18.7918 17.378 18.7567 18.4683H28.8091C29.0657 18.4683 29.2981 18.5731 29.4656 18.7396C29.633 18.9061 29.7384 19.137 29.7384 19.3921V26.2484C29.8276 26.2859 29.9113 26.3289 29.9923 26.3773C30.1382 26.4632 30.2706 26.5679 30.3895 26.6861C30.5813 26.8768 30.7353 27.105 30.8406 27.3602L30.846 27.3763C30.9433 27.618 31 27.8812 31 28.1524C31 28.4317 30.9433 28.6976 30.8406 28.9446C30.7353 29.1998 30.5786 29.428 30.3895 29.6187C30.1977 29.8094 29.968 29.9625 29.7114 30.0672C29.4656 30.1692 29.1954 30.2256 28.9144 30.2256C28.6335 30.2256 28.366 30.1692 28.1175 30.0672C27.8608 29.9625 27.6312 29.8067 27.4394 29.6187C27.2476 29.428 27.0936 29.1998 26.9883 28.9446C26.8856 28.7003 26.8289 28.4317 26.8289 28.1524C26.8289 27.8731 26.8856 27.6046 26.9883 27.3602C27.0936 27.105 27.2503 26.8768 27.4394 26.6861C27.5259 26.6002 27.6231 26.5196 27.7258 26.4471C27.7744 26.4122 27.8257 26.3799 27.8798 26.3504V20.3187H18.6838C18.6432 21.1888 18.5946 22.0616 18.5352 22.9317H21.5177C21.7743 22.9317 22.0066 23.0364 22.1741 23.2029C22.3416 23.3694 22.447 23.6004 22.447 23.8555V27.524C22.5145 27.5589 22.5767 27.5965 22.6415 27.6368C22.7658 27.7173 22.8765 27.8087 22.9765 27.908L22.9927 27.9241C23.1764 28.1121 23.3277 28.335 23.4303 28.5821C23.533 28.8265 23.5897 29.095 23.5897 29.3743C23.5897 29.6536 23.533 29.9222 23.4303 30.1666L23.4222 30.1827C23.3169 30.4324 23.1629 30.6553 22.9765 30.8406L22.963 30.8541C22.7739 31.0394 22.5496 31.1898 22.3038 31.2918C22.058 31.3939 21.7851 31.4503 21.5042 31.4503C21.2232 31.4503 20.9557 31.3939 20.7072 31.2918C20.4506 31.1871 20.2209 31.0313 20.0291 30.8433L20.0129 30.8272C19.8292 30.6392 19.6779 30.4163 19.5753 30.1692C19.4726 29.9222 19.4159 29.6563 19.4159 29.377C19.4159 29.0977 19.4726 28.8318 19.5753 28.5848C19.6806 28.3297 19.8346 28.1014 20.0264 27.9107C20.1318 27.806 20.2506 27.712 20.3749 27.6314C20.4425 27.5884 20.5127 27.5482 20.5856 27.5132V24.782H18.3974C18.3677 25.15 18.3353 25.5179 18.3028 25.8831C18.2596 26.3558 18.1218 27.2286 18.211 27.6609C18.4487 28.8077 17.4086 32.2667 14.3505 32.9031C12.8431 33.2147 11.2843 32.7554 10.1091 31.8423C9.16899 31.1146 8.4639 30.0914 8.20995 28.9339C7.71828 28.9151 7.21849 28.8157 6.73222 28.6546C5.65701 28.2947 4.62233 27.5938 3.81457 26.6646C3.00141 25.7327 2.41248 24.5618 2.22607 23.2593C2.13152 22.5799 2.14503 21.8709 2.29631 21.1404C1.76952 20.6651 1.31566 20.1307 0.956358 19.5479C0.329604 18.5516 -0.0134896 17.429 1.80254e-05 16.2742C0.0135257 15.1114 0.386336 13.9324 1.19409 12.8367C1.66416 12.2003 2.28281 11.5933 3.06625 11.0374C3.05814 10.8253 3.05814 10.6131 3.06355 10.4036C3.12568 8.70636 3.75514 7.21319 4.67366 6.09869C5.62459 4.94391 6.89701 4.18927 8.20455 4.00397H8.20995C8.25588 3.81329 8.30991 3.6253 8.38015 3.44269C8.80159 2.3067 9.66878 1.3399 10.7305 0.724913C11.8003 0.107237 13.0835 -0.166689 14.3343 0.0911237C15.5365 0.343565 16.6819 1.05792 17.5437 2.39532ZM8.31261 26.6431C8.75566 25.2574 9.92542 23.8743 12.1326 22.7545C12.6837 22.4778 13.3537 22.6927 13.6373 23.2379C13.9156 23.7857 13.6995 24.4517 13.151 24.7337C11.106 25.773 10.3361 26.9654 10.3361 28.0047C10.3361 28.8157 10.8007 29.5731 11.4761 30.0994C12.1623 30.6285 13.0484 30.9051 13.8859 30.7332C14.9286 30.5184 15.9336 29.5596 16.455 27.4703V5.5025C15.9336 3.42926 14.9286 2.47589 13.8886 2.26105C13.2024 2.11871 12.473 2.27984 11.8516 2.64239C11.2222 3.00494 10.717 3.56354 10.4765 4.20807C10.1578 5.06744 10.3469 6.12286 11.4275 7.11651C11.8759 7.53277 11.9056 8.22833 11.4869 8.67413C11.0682 9.11993 10.3685 9.14947 9.92002 8.73321C9.07984 7.95978 8.56115 7.138 8.3018 6.31891C7.63993 6.47735 6.98616 6.91241 6.45666 7.55157C5.83801 8.30084 5.41387 9.31598 5.37065 10.4815C5.35984 10.7903 5.37605 11.118 5.42198 11.4537H5.41928C5.47871 11.8887 5.2842 12.3399 4.88438 12.5843C4.07392 13.0784 3.47688 13.6236 3.05814 14.1902C2.55026 14.8777 2.31793 15.6002 2.30982 16.2957C2.30172 17.002 2.52054 17.7056 2.91226 18.3367C3.24455 18.8712 3.69841 19.3599 4.25222 19.7681C4.66825 20.0528 4.86276 20.5845 4.69257 21.0814C4.47374 21.7259 4.42512 22.3516 4.50886 22.9344C4.62773 23.7723 5.01945 24.5377 5.55435 25.1526C6.09196 25.7703 6.77274 26.2322 7.46973 26.4686C7.75069 26.576 8.03435 26.6297 8.31261 26.6431ZM8.56655 11.0374C9.0042 10.6104 9.7066 10.6158 10.1388 11.0508C10.5684 11.4859 10.563 12.1841 10.1253 12.6138C9.1717 13.5484 8.67462 14.7515 8.62058 15.9815C8.56926 17.2491 8.98259 18.5543 9.85248 19.6258C10.2388 20.1011 10.1605 20.7967 9.68228 21.1807C9.20411 21.5648 8.50442 21.4869 8.1181 21.0115C6.89971 19.5103 6.32159 17.6841 6.39453 15.8929C6.47287 14.1151 7.19148 12.3802 8.56655 11.0374Z" fill="#4285F4"/>
</g>
<defs>
<clipPath id="clip0_10_18">
<rect width="31" height="33" fill="white"/>
</clipPath>
</defs>
</svg>
