<svg width="165" height="408" viewBox="0 0 165 408" fill="none" xmlns="http://www.w3.org/2000/svg">
<g opacity="0.2">
<line x1="70.24" y1="12.7244" x2="74.5001" y2="1.01986" stroke="#25A567" stroke-width="2"/>
<line x1="96.8644" y1="12.1777" x2="103.092" y2="1.39079" stroke="#25A567" stroke-width="2"/>
<line x1="123.656" y1="11.6453" x2="131.662" y2="2.10368" stroke="#25A567" stroke-width="2"/>
<line x1="150.65" y1="10.7437" x2="160.192" y2="2.73735" stroke="#25A567" stroke-width="2"/>
<line x1="17.3242" y1="13.4561" x2="17.3242" y2="1.00036" stroke="#25A567" stroke-width="2"/>
<line x1="43.7418" y1="13.2824" x2="45.9047" y2="1.01594" stroke="#25A567" stroke-width="2"/>
<line x1="42.2166" y1="34.5222" x2="46.4767" y2="22.8177" stroke="#25A567" stroke-width="2"/>
<line x1="68.8371" y1="33.9746" x2="75.0649" y2="23.1877" stroke="#25A567" stroke-width="2"/>
<line x1="95.6285" y1="33.4431" x2="103.635" y2="23.9015" stroke="#25A567" stroke-width="2"/>
<line x1="122.627" y1="32.5416" x2="132.168" y2="24.5352" stroke="#25A567" stroke-width="2"/>
<line x1="149.859" y1="31.2736" x2="160.646" y2="25.0458" stroke="#25A567" stroke-width="2"/>
<line x1="15.7183" y1="35.0793" x2="17.8812" y2="22.8128" stroke="#25A567" stroke-width="2"/>
<line x1="14.1892" y1="56.3201" x2="18.4493" y2="44.6156" stroke="#25A567" stroke-width="2"/>
<line x1="40.8137" y1="55.7725" x2="47.0415" y2="44.9855" stroke="#25A567" stroke-width="2"/>
<line x1="67.605" y1="55.24" x2="75.6114" y2="45.6984" stroke="#25A567" stroke-width="2"/>
<line x1="94.6033" y1="54.3384" x2="104.145" y2="46.3321" stroke="#25A567" stroke-width="2"/>
<line x1="121.836" y1="53.0705" x2="132.623" y2="46.8427" stroke="#25A567" stroke-width="2"/>
<line x1="149.33" y1="52.2185" x2="161.034" y2="47.9584" stroke="#25A567" stroke-width="2"/>
<line x1="12.7863" y1="77.5703" x2="19.0142" y2="66.7834" stroke="#25A567" stroke-width="2"/>
<line x1="39.5777" y1="77.0379" x2="47.5841" y2="67.4963" stroke="#25A567" stroke-width="2"/>
<line x1="66.576" y1="76.1363" x2="76.1176" y2="68.1299" stroke="#25A567" stroke-width="2"/>
<line x1="93.8125" y1="74.8683" x2="104.599" y2="68.6405" stroke="#25A567" stroke-width="2"/>
<line x1="121.306" y1="74.0164" x2="133.011" y2="69.7563" stroke="#25A567" stroke-width="2"/>
<line x1="149.08" y1="72.8033" x2="161.347" y2="70.6404" stroke="#25A567" stroke-width="2"/>
<line x1="11.5543" y1="98.8357" x2="19.5606" y2="89.2941" stroke="#25A567" stroke-width="2"/>
<line x1="38.5525" y1="97.9332" x2="48.0941" y2="89.9268" stroke="#25A567" stroke-width="2"/>
<line x1="65.7852" y1="96.6662" x2="76.5721" y2="90.4384" stroke="#25A567" stroke-width="2"/>
<line x1="93.2791" y1="95.8132" x2="104.984" y2="91.5531" stroke="#25A567" stroke-width="2"/>
<line x1="121.053" y1="94.6011" x2="133.319" y2="92.4382" stroke="#25A567" stroke-width="2"/>
<line x1="164.68" y1="95.418" x2="152.224" y2="95.418" stroke="#25A567" stroke-width="2"/>
<line x1="10.5252" y1="119.731" x2="20.0668" y2="111.725" stroke="#25A567" stroke-width="2"/>
<line x1="37.7617" y1="118.463" x2="48.5487" y2="112.235" stroke="#25A567" stroke-width="2"/>
<line x1="65.2556" y1="117.611" x2="76.9602" y2="113.351" stroke="#25A567" stroke-width="2"/>
<line x1="93.0295" y1="116.398" x2="105.296" y2="114.235" stroke="#25A567" stroke-width="2"/>
<line x1="136.652" y1="117.216" x2="124.197" y2="117.216" stroke="#25A567" stroke-width="2"/>
<line x1="164.365" y1="118.368" x2="152.099" y2="116.205" stroke="#25A567" stroke-width="2"/>
<line x1="9.73438" y1="140.261" x2="20.5213" y2="134.033" stroke="#25A567" stroke-width="2"/>
<line x1="37.2283" y1="139.409" x2="48.9328" y2="135.149" stroke="#25A567" stroke-width="2"/>
<line x1="65.0021" y1="138.196" x2="77.2686" y2="136.033" stroke="#25A567" stroke-width="2"/>
<line x1="108.629" y1="139.013" x2="96.1732" y2="139.013" stroke="#25A567" stroke-width="2"/>
<line x1="136.338" y1="140.165" x2="124.072" y2="138.003" stroke="#25A567" stroke-width="2"/>
<line x1="163.775" y1="141.288" x2="152.071" y2="137.028" stroke="#25A567" stroke-width="2"/>
<line x1="9.20485" y1="161.206" x2="20.9094" y2="156.946" stroke="#25A567" stroke-width="2"/>
<line x1="36.9787" y1="159.994" x2="49.2452" y2="157.831" stroke="#25A567" stroke-width="2"/>
<line x1="162.93" y1="163.79" x2="152.143" y2="157.562" stroke="#25A567" stroke-width="2"/>
<line x1="80.6055" y1="160.811" x2="68.1498" y2="160.811" stroke="#25A567" stroke-width="2"/>
<line x1="108.315" y1="161.963" x2="96.0482" y2="159.8" stroke="#25A567" stroke-width="2"/>
<line x1="135.748" y1="163.085" x2="124.043" y2="158.825" stroke="#25A567" stroke-width="2"/>
<line x1="8.95135" y1="181.791" x2="21.2178" y2="179.628" stroke="#25A567" stroke-width="2"/>
<line x1="134.902" y1="185.588" x2="124.115" y2="179.36" stroke="#25A567" stroke-width="2"/>
<line x1="161.853" y1="186.656" x2="152.312" y2="178.649" stroke="#25A567" stroke-width="2"/>
<line x1="52.5781" y1="182.607" x2="40.1224" y2="182.607" stroke="#25A567" stroke-width="2"/>
<line x1="80.2873" y1="183.76" x2="68.0208" y2="181.597" stroke="#25A567" stroke-width="2"/>
<line x1="107.724" y1="184.883" x2="96.0199" y2="180.623" stroke="#25A567" stroke-width="2"/>
<line x1="106.879" y1="207.386" x2="96.092" y2="201.158" stroke="#25A567" stroke-width="2"/>
<line x1="133.826" y1="208.453" x2="124.284" y2="200.446" stroke="#25A567" stroke-width="2"/>
<line x1="160.578" y1="209.109" x2="152.571" y2="199.567" stroke="#25A567" stroke-width="2"/>
<line x1="24.5547" y1="204.405" x2="12.099" y2="204.405" stroke="#25A567" stroke-width="2"/>
<line x1="52.2639" y1="205.558" x2="39.9974" y2="203.395" stroke="#25A567" stroke-width="2"/>
<line x1="79.7009" y1="206.681" x2="67.9964" y2="202.421" stroke="#25A567" stroke-width="2"/>
<line x1="78.8516" y1="229.182" x2="68.0646" y2="222.955" stroke="#25A567" stroke-width="2"/>
<line x1="105.803" y1="230.25" x2="96.2609" y2="222.244" stroke="#25A567" stroke-width="2"/>
<line x1="132.55" y1="230.905" x2="124.544" y2="221.364" stroke="#25A567" stroke-width="2"/>
<line x1="159.146" y1="231.152" x2="152.918" y2="220.365" stroke="#25A567" stroke-width="2"/>
<line x1="24.2365" y1="227.355" x2="11.97" y2="225.192" stroke="#25A567" stroke-width="2"/>
<line x1="51.6736" y1="228.478" x2="39.9691" y2="224.218" stroke="#25A567" stroke-width="2"/>
<line x1="50.8281" y1="250.98" x2="40.0412" y2="244.752" stroke="#25A567" stroke-width="2"/>
<line x1="77.7752" y1="252.048" x2="68.2336" y2="244.042" stroke="#25A567" stroke-width="2"/>
<line x1="104.527" y1="252.703" x2="96.5206" y2="243.162" stroke="#25A567" stroke-width="2"/>
<line x1="131.118" y1="252.949" x2="124.891" y2="242.162" stroke="#25A567" stroke-width="2"/>
<line x1="157.595" y1="253.181" x2="153.335" y2="241.476" stroke="#25A567" stroke-width="2"/>
<line x1="23.6502" y1="250.276" x2="11.9456" y2="246.016" stroke="#25A567" stroke-width="2"/>
<line x1="22.8008" y1="272.778" x2="12.0138" y2="266.55" stroke="#25A567" stroke-width="2"/>
<line x1="49.7517" y1="273.845" x2="40.2101" y2="265.839" stroke="#25A567" stroke-width="2"/>
<line x1="76.5035" y1="274.5" x2="68.4971" y2="264.959" stroke="#25A567" stroke-width="2"/>
<line x1="103.095" y1="274.747" x2="96.8671" y2="263.96" stroke="#25A567" stroke-width="2"/>
<line x1="129.568" y1="274.979" x2="125.308" y2="263.274" stroke="#25A567" stroke-width="2"/>
<line x1="155.976" y1="275.199" x2="153.813" y2="262.933" stroke="#25A567" stroke-width="2"/>
<line x1="21.7244" y1="295.643" x2="12.1828" y2="287.637" stroke="#25A567" stroke-width="2"/>
<line x1="48.4761" y1="296.298" x2="40.4698" y2="286.756" stroke="#25A567" stroke-width="2"/>
<line x1="75.0676" y1="296.545" x2="68.8397" y2="285.758" stroke="#25A567" stroke-width="2"/>
<line x1="101.545" y1="296.776" x2="97.2846" y2="285.071" stroke="#25A567" stroke-width="2"/>
<line x1="127.953" y1="296.997" x2="125.79" y2="284.73" stroke="#25A567" stroke-width="2"/>
<line x1="154.34" y1="296.823" x2="154.34" y2="284.368" stroke="#25A567" stroke-width="2"/>
<line x1="20.4527" y1="318.096" x2="12.4463" y2="308.554" stroke="#25A567" stroke-width="2"/>
<line x1="47.0441" y1="318.342" x2="40.8163" y2="307.555" stroke="#25A567" stroke-width="2"/>
<line x1="73.5173" y1="318.573" x2="69.2572" y2="306.869" stroke="#25A567" stroke-width="2"/>
<line x1="99.9253" y1="318.794" x2="97.7624" y2="306.527" stroke="#25A567" stroke-width="2"/>
<line x1="126.312" y1="318.62" x2="126.312" y2="306.164" stroke="#25A567" stroke-width="2"/>
<line x1="152.734" y1="318.446" x2="154.897" y2="306.18" stroke="#25A567" stroke-width="2"/>
<line x1="151.205" y1="339.686" x2="155.465" y2="327.982" stroke="#25A567" stroke-width="2"/>
<line x1="19.0168" y1="340.14" x2="12.7889" y2="329.353" stroke="#25A567" stroke-width="2"/>
<line x1="45.4939" y1="340.37" x2="41.2338" y2="328.666" stroke="#25A567" stroke-width="2"/>
<line x1="71.9019" y1="340.592" x2="69.739" y2="328.325" stroke="#25A567" stroke-width="2"/>
<line x1="98.2891" y1="340.418" x2="98.2891" y2="327.962" stroke="#25A567" stroke-width="2"/>
<line x1="124.707" y1="340.244" x2="126.87" y2="327.978" stroke="#25A567" stroke-width="2"/>
<line x1="123.181" y1="361.484" x2="127.441" y2="349.78" stroke="#25A567" stroke-width="2"/>
<line x1="149.802" y1="360.937" x2="156.03" y2="350.15" stroke="#25A567" stroke-width="2"/>
<line x1="17.4666" y1="362.168" x2="13.2065" y2="350.464" stroke="#25A567" stroke-width="2"/>
<line x1="43.8746" y1="362.389" x2="41.7117" y2="350.123" stroke="#25A567" stroke-width="2"/>
<line x1="70.2617" y1="362.216" x2="70.2617" y2="349.76" stroke="#25A567" stroke-width="2"/>
<line x1="96.6832" y1="362.042" x2="98.8461" y2="349.776" stroke="#25A567" stroke-width="2"/>
<line x1="95.1541" y1="383.282" x2="99.4142" y2="371.577" stroke="#25A567" stroke-width="2"/>
<line x1="121.779" y1="382.734" x2="128.006" y2="371.947" stroke="#25A567" stroke-width="2"/>
<line x1="148.57" y1="382.202" x2="156.576" y2="372.66" stroke="#25A567" stroke-width="2"/>
<line x1="15.8511" y1="384.186" x2="13.6882" y2="371.92" stroke="#25A567" stroke-width="2"/>
<line x1="42.2383" y1="384.013" x2="42.2383" y2="371.557" stroke="#25A567" stroke-width="2"/>
<line x1="68.6558" y1="383.839" x2="70.8187" y2="371.573" stroke="#25A567" stroke-width="2"/>
<line x1="67.1306" y1="405.079" x2="71.3907" y2="393.374" stroke="#25A567" stroke-width="2"/>
<line x1="93.7512" y1="404.532" x2="99.979" y2="393.745" stroke="#25A567" stroke-width="2"/>
<line x1="120.543" y1="404" x2="128.549" y2="394.458" stroke="#25A567" stroke-width="2"/>
<line x1="147.541" y1="403.098" x2="157.082" y2="395.092" stroke="#25A567" stroke-width="2"/>
<line x1="14.2109" y1="405.811" x2="14.2109" y2="393.355" stroke="#25A567" stroke-width="2"/>
<line x1="40.6324" y1="405.637" x2="42.7953" y2="393.37" stroke="#25A567" stroke-width="2"/>
</g>
</svg>
