<svg width="39" height="30" viewBox="0 0 39 30" fill="none" xmlns="http://www.w3.org/2000/svg">
<g clip-path="url(#clip0_10_15)">
<path fill-rule="evenodd" clip-rule="evenodd" d="M16.0088 25.8223C17.0879 28.9361 21.6011 29.0512 22.6167 25.8223C23.8101 26.8768 27.3457 27.0852 28.6597 27.8069C29.0754 28.034 29.45 28.3233 29.7546 28.7153C29.9578 28.9766 30.2275 29.4618 30.4338 30.0031H8.19165C8.39795 29.4618 8.66772 28.9766 8.87085 28.7153C9.17236 28.3233 9.55005 28.034 9.96582 27.8069C11.2798 27.0852 14.8123 26.8737 16.0088 25.8223ZM32.6206 14.3499H30.1038C29.7197 14.3499 29.3865 14.4836 29.1135 14.748C28.8406 15.0156 28.7073 15.3391 28.7073 15.7186V18.1232C28.7073 18.5058 28.8438 18.8293 29.1135 19.0937C29.3865 19.3613 29.7166 19.4919 30.1038 19.4919H31.1829C31.1035 19.7937 31.0051 20.0798 30.8813 20.3505C30.7607 20.6211 30.5544 20.8824 30.2688 21.1313C30.8147 20.9913 31.3003 20.7829 31.7288 20.5091C32.1541 20.2354 32.5254 19.8932 32.8301 19.4919H33.7568C34.144 19.4919 34.4741 19.355 34.7471 19.0937C35.0232 18.8262 35.1533 18.5027 35.1533 18.1232V15.7186C35.1533 15.3391 35.0168 15.0156 34.7471 14.748C34.4773 14.4805 34.144 14.3499 33.7568 14.3499H32.6206ZM39 17.1122V19.5168C39 19.7345 38.9619 19.9399 38.8794 20.1296C38.8 20.3194 38.6826 20.4936 38.5208 20.6491C38.4541 20.7144 38.3779 20.7766 38.3049 20.8264C38.2288 20.8824 38.1462 20.926 38.0669 20.9664C38.0637 20.9695 38.0574 20.9695 38.0542 20.9726C37.9495 21.0224 37.8416 21.0535 37.7305 21.0784C37.613 21.1033 37.4924 21.1157 37.3687 21.1157H36.5974C36.6133 21.1624 36.6292 21.2122 36.6482 21.2619C36.6926 21.3957 36.7498 21.5263 36.8069 21.6601V21.6632C36.8608 21.7845 36.9338 21.8996 37.0227 22.0147C37.1147 22.1329 37.2258 22.248 37.3591 22.3662C37.4543 22.4471 37.4639 22.5902 37.3782 22.6835C37.321 22.7489 37.229 22.7737 37.1497 22.7551C36.8672 22.6804 36.5942 22.5902 36.3403 22.4813C36.0864 22.3725 35.8452 22.2449 35.6199 22.0987C35.3977 21.9556 35.1882 21.7939 34.9946 21.6134C34.8296 21.461 34.6772 21.2961 34.5313 21.1188H33.7219C33.5696 21.1188 33.4236 21.1002 33.2839 21.0659C33.1443 21.0286 33.011 20.9726 32.884 20.898C32.7761 20.8358 32.7412 20.6958 32.8079 20.59C32.8713 20.4842 33.0142 20.45 33.1221 20.5153C33.2078 20.5651 33.2998 20.6056 33.4045 20.6336C33.5029 20.6616 33.6108 20.674 33.7219 20.674H34.6455C34.7153 20.674 34.7852 20.7051 34.8296 20.7642C34.9756 20.954 35.1343 21.1313 35.312 21.2899C35.4834 21.4517 35.6738 21.5948 35.877 21.7254C36.0706 21.8499 36.2769 21.9618 36.4958 22.0583C36.4514 21.9867 36.4197 21.9183 36.3848 21.8499C36.3245 21.7099 36.2642 21.5668 36.2134 21.4175C36.1626 21.2744 36.1182 21.1282 36.0769 20.9788C36.0674 20.954 36.0642 20.926 36.0642 20.9011C36.0642 20.7766 36.1658 20.674 36.2959 20.674H37.3718C37.4639 20.674 37.5496 20.6647 37.6353 20.646C37.7146 20.6273 37.7908 20.6024 37.8606 20.5713C37.8638 20.5682 37.8669 20.5682 37.8701 20.5651C37.9272 20.5371 37.9875 20.506 38.0383 20.4687C38.0955 20.4282 38.1462 20.3878 38.197 20.3349C38.3113 20.2229 38.397 20.0985 38.4541 19.9647C38.5112 19.831 38.5366 19.6848 38.5366 19.523V17.1184C38.5366 16.9567 38.5081 16.8105 38.4541 16.6767C38.4001 16.5429 38.3113 16.4185 38.197 16.3065C38.0828 16.1945 37.9558 16.1105 37.8193 16.0545C37.6829 15.9985 37.5337 15.9737 37.3687 15.9737H36.2261C36.0991 15.9737 35.9944 15.8741 35.9944 15.7466C35.9944 15.6221 36.0959 15.5195 36.2261 15.5195H37.3687C37.5908 15.5195 37.7971 15.5599 37.9907 15.6377C38.1843 15.7155 38.3589 15.8306 38.5176 15.9861C38.6763 16.1416 38.7969 16.3127 38.873 16.5056C38.9556 16.6954 38.9937 16.8976 38.9937 17.1153H39V17.1122ZM4.75122 12.5892C4.729 12.5892 4.70996 12.5861 4.69092 12.5798C4.59253 12.5798 4.50684 12.5021 4.50684 12.3994V12.0448H2.72632V12.3994C2.72632 12.4896 2.65332 12.5705 2.56128 12.5767C2.54224 12.583 2.52002 12.5861 2.4978 12.5861H1.82495V13.3202H5.33838V12.5861H4.74487L4.75122 12.5892ZM1.65356 17.0064C1.85352 17.0064 2.01538 17.1651 2.01538 17.3611C2.01538 17.557 1.85352 17.7157 1.65356 17.7157C1.45361 17.7157 1.29175 17.557 1.29175 17.3611C1.28857 17.1651 1.45044 17.0064 1.65356 17.0064ZM1.23462 16.1323C1.18384 16.0577 1.20605 15.9612 1.27905 15.9114C1.35522 15.8617 1.45361 15.8835 1.50439 15.955L1.59326 16.0825L1.94556 15.6626C2.00269 15.5942 2.10425 15.5848 2.17407 15.6408C2.2439 15.6968 2.25342 15.7963 2.19629 15.8648L1.71069 16.4465C1.70117 16.4589 1.68848 16.4714 1.67261 16.4807C1.59961 16.5305 1.49805 16.5087 1.44727 16.4372L1.23462 16.1323ZM1.23462 14.9036C1.18384 14.8289 1.20605 14.7325 1.27905 14.6827C1.35522 14.6329 1.45361 14.6516 1.50439 14.7263L1.59326 14.8538L1.94556 14.4338C2.00269 14.3654 2.10425 14.3561 2.17407 14.4121C2.2439 14.4681 2.25342 14.5676 2.19629 14.636L1.71069 15.2178C1.70117 15.2302 1.68848 15.2426 1.67261 15.2551C1.59961 15.3049 1.49805 15.2831 1.44727 15.2115L1.23462 14.9036ZM5.00513 20.3505C4.97339 20.3785 4.92578 20.3971 4.88135 20.3971C4.87183 20.3971 4.8623 20.3971 4.85278 20.394H0.40625C0.295166 20.394 0.193604 20.3505 0.117432 20.2758C0.0444336 20.2043 0 20.1078 0 19.9959V13.0962C0 12.9842 0.0444336 12.8878 0.120605 12.8131C0.193604 12.7416 0.295166 12.6949 0.409424 12.6949H1.46631V12.499C1.46631 12.4243 1.49487 12.359 1.54883 12.3092C1.59644 12.2625 1.66626 12.2283 1.74243 12.2283H2.36768V11.9826C2.36768 11.9017 2.40259 11.827 2.45972 11.7742C2.51367 11.7213 2.58984 11.6871 2.67236 11.6871H4.57983C4.66235 11.6871 4.73853 11.7213 4.79248 11.7742C4.84644 11.827 4.88135 11.9017 4.88135 11.9826V12.2283H5.44629C5.51929 12.2283 5.58911 12.2594 5.63989 12.3092C5.6875 12.3559 5.72241 12.4243 5.72241 12.499V12.6949H6.7793C6.89355 12.6949 6.99194 12.7385 7.06812 12.8131C7.14111 12.8878 7.18872 12.9842 7.18872 13.0962V18.0734C7.20459 18.145 7.18872 18.201 7.13477 18.2538L5.03369 20.338C5.02734 20.3443 5.02417 20.3474 5.01782 20.3505H5.00513ZM4.69727 20.0363C4.69727 17.6535 4.3894 17.9365 6.81103 17.9365V13.0962C6.81103 13.0869 6.80786 13.0744 6.79834 13.0682C6.79199 13.062 6.78247 13.0558 6.76978 13.0558H5.71289V13.4166C5.71289 13.4913 5.68433 13.5566 5.63354 13.6064C5.58594 13.653 5.51611 13.6842 5.43994 13.6842H1.73608C1.66309 13.6842 1.59009 13.653 1.54248 13.6064C1.53613 13.6002 1.53296 13.5939 1.52661 13.5877C1.48853 13.5411 1.46313 13.482 1.46313 13.4166V13.0558H0.403076C0.393555 13.0558 0.380859 13.0589 0.374512 13.0682C0.368164 13.0744 0.361816 13.0869 0.361816 13.0962V19.9959C0.361816 20.0083 0.36499 20.0176 0.374512 20.0238C0.380859 20.0301 0.390381 20.0363 0.403076 20.0363H4.69727V20.0363ZM2.98022 17.4855C2.88184 17.4855 2.79614 17.4046 2.79614 17.3051C2.79614 17.2086 2.87549 17.1246 2.98022 17.1246H4.72583C4.82422 17.1246 4.90991 17.2024 4.90991 17.3051C4.90991 17.4015 4.83057 17.4855 4.72583 17.4855H2.98022ZM2.98022 14.9129C2.88184 14.9129 2.79614 14.8351 2.79614 14.7325C2.79614 14.636 2.87549 14.5521 2.98022 14.5521H5.66846C5.77002 14.5521 5.85254 14.6329 5.85254 14.7325C5.85254 14.8289 5.77319 14.9129 5.66846 14.9129H2.98022ZM2.98022 16.2007C2.88184 16.2007 2.79614 16.123 2.79614 16.0203C2.79614 15.9208 2.87549 15.8399 2.98022 15.8399H5.66846C5.77002 15.8399 5.85254 15.9177 5.85254 16.0203C5.85254 16.1168 5.77319 16.2007 5.66846 16.2007H2.98022ZM22.4961 1.29407C21.6804 0.494608 20.5537 0 19.3096 0C18.0654 0 16.9387 0.494608 16.123 1.29407C15.3074 2.09353 14.8027 3.19784 14.8027 4.41725C14.8027 5.63666 15.3074 6.74098 16.123 7.54044C16.9387 8.3399 18.0654 8.83451 19.3096 8.83451C20.5537 8.83451 21.6804 8.3399 22.4961 7.54044C23.3118 6.74098 23.8164 5.63666 23.8164 4.41725C23.8164 3.19784 23.3118 2.09353 22.4961 1.29407ZM19.2334 2.27084H18.6621C18.6558 2.27084 18.6462 2.27395 18.6431 2.28017C18.6367 2.2864 18.6335 2.29262 18.6335 2.29884V5.22916H21.4297C21.436 5.22916 21.4456 5.22605 21.4487 5.21983C21.4551 5.2136 21.4583 5.20738 21.4583 5.20116V4.64123C21.4583 4.63501 21.4551 4.62567 21.4487 4.62256C21.4424 4.61634 21.436 4.61323 21.4297 4.61323H19.4238C19.335 4.61323 19.262 4.54168 19.262 4.45458V2.29884C19.262 2.29262 19.2588 2.2864 19.2556 2.28328L19.2524 2.28017C19.2493 2.27395 19.2397 2.27084 19.2334 2.27084ZM19.3096 0.721692C20.3506 0.721692 21.2932 1.13542 21.9756 1.80423C22.658 2.47304 23.0801 3.39693 23.0801 4.41725C23.0801 5.43758 22.658 6.36147 21.9756 7.03028C21.2932 7.69909 20.3506 8.11282 19.3096 8.11282C18.2686 8.11282 17.3259 7.69909 16.6436 7.03028C15.9612 6.36147 15.5391 5.43758 15.5391 4.41725C15.5391 3.39693 15.9612 2.47304 16.6436 1.80423C17.3291 1.13542 18.2686 0.721692 19.3096 0.721692ZM4.42114 28.8677C4.58936 29.2348 4.42114 29.664 4.04663 29.8289C3.67212 29.9938 3.23413 29.8289 3.06909 29.4618C2.65332 28.5535 2.31372 27.6047 2.06299 26.628C1.8186 25.6698 1.65356 24.6775 1.58057 23.6603C1.552 23.259 1.85986 22.9106 2.26929 22.8826C2.67871 22.8546 3.03418 23.1564 3.06274 23.5577C3.12939 24.4878 3.28174 25.3961 3.50708 26.2733C3.7356 27.1754 4.04346 28.0433 4.42114 28.8677ZM8.35034 10.7134C8.04565 10.9809 7.57593 10.956 7.30298 10.6574C7.03003 10.3588 7.05542 9.89838 7.36011 9.63086C8.052 9.02426 8.8645 8.40212 9.70239 7.86707C10.4514 7.38801 11.229 6.97117 11.9685 6.69121C12.3494 6.54811 12.781 6.73165 12.927 7.10805C13.073 7.48134 12.8857 7.9044 12.5017 8.04749C11.8638 8.29013 11.1782 8.6572 10.5085 9.08648C9.7373 9.58109 8.98828 10.1566 8.35034 10.7134ZM25.6794 8.07238C25.3049 7.90751 25.1399 7.47511 25.3081 7.11116C25.4763 6.74409 25.9175 6.58233 26.2888 6.7472C27.4536 7.26358 28.5454 7.89817 29.5547 8.63542C30.5671 9.37578 31.5002 10.2281 32.335 11.1707C32.6016 11.4755 32.5698 11.9328 32.2588 12.1972C31.9478 12.4585 31.4812 12.4274 31.2114 12.1226C30.4561 11.2671 29.5991 10.4894 28.6628 9.80506C27.7424 9.12381 26.7395 8.5421 25.6794 8.07238ZM34.9946 24.5127C35.0486 24.1145 35.4199 23.8345 35.8262 23.8874C36.2324 23.9403 36.5181 24.3042 36.4641 24.7024C36.353 25.5236 36.1848 26.32 35.9626 27.0915C35.7373 27.8816 35.4548 28.6468 35.1216 29.381C34.9565 29.748 34.5186 29.916 34.1409 29.7543C33.7632 29.5925 33.595 29.1632 33.76 28.793C34.0679 28.1149 34.325 27.415 34.5313 26.6964C34.7407 25.984 34.8962 25.253 34.9946 24.5127ZM15.1804 19.3675C14.9519 19.3768 14.7805 19.4235 14.6663 19.4981C14.5996 19.5417 14.5488 19.5977 14.5171 19.6661C14.4822 19.7408 14.4663 19.831 14.4695 19.9336C14.479 20.2385 14.6409 20.6367 14.9551 21.0939L14.9614 21.1002L15.9834 22.6929C16.3928 23.3306 16.8213 23.9838 17.3577 24.4598C17.8718 24.9202 18.4939 25.2312 19.3159 25.2312C20.2078 25.2343 20.8616 24.9108 21.3884 24.4255C21.9375 23.9216 22.3723 23.2279 22.8008 22.5373L23.9497 20.6802C24.1655 20.2012 24.2417 19.8808 24.1941 19.691C24.1655 19.579 24.0386 19.523 23.8228 19.5137C23.7783 19.5106 23.7307 19.5106 23.6831 19.5106C23.6323 19.5137 23.5784 19.5168 23.5212 19.5199C23.4895 19.523 23.4609 19.5199 23.4324 19.5137C23.3308 19.5199 23.2229 19.5106 23.1182 19.4981L23.5117 17.949C20.5886 18.4 18.4019 16.2723 15.3105 17.5228L15.5327 19.3768C15.4058 19.3861 15.2883 19.383 15.1804 19.3675ZM24.2131 19.0066C24.4956 19.0906 24.6797 19.2679 24.7527 19.551C24.8352 19.8652 24.7463 20.3131 24.4734 20.9197C24.467 20.9322 24.4639 20.9415 24.4575 20.9508L23.2927 22.8297C22.8452 23.5545 22.3882 24.2793 21.7788 24.8393C21.1504 25.4179 20.3728 25.8005 19.3127 25.7974C18.3225 25.7943 17.5767 25.4241 16.9641 24.8766C16.3738 24.3478 15.9199 23.6634 15.4915 22.9946L14.4695 21.4019C14.095 20.8575 13.9014 20.3567 13.8887 19.9461C13.8823 19.7532 13.9172 19.579 13.9902 19.4235C14.0664 19.2617 14.1838 19.128 14.3425 19.0222C14.4155 18.9724 14.498 18.932 14.5901 18.8978C14.5234 18.033 14.498 17.106 14.5425 16.1945C14.5647 15.9799 14.606 15.7621 14.6694 15.5475C14.9297 14.6329 15.5867 14.2161 16.396 13.709C16.8435 13.4291 17.3323 13.2207 17.8433 13.0776C18.167 12.9873 17.5671 11.9701 17.9036 11.9359C19.5254 11.7742 22.1501 13.2238 23.2832 14.4245C23.8513 15.0249 24.2068 15.5039 24.283 16.5616L24.2131 19.0066Z" fill="#4285F4"/>
</g>
<defs>
<clipPath id="clip0_10_15">
<rect width="39" height="30" fill="white"/>
</clipPath>
</defs>
</svg>
