<svg width="298" height="408" viewBox="0 0 298 408" fill="none" xmlns="http://www.w3.org/2000/svg">
<g opacity="0.4">
<line x1="94.76" y1="395.276" x2="90.4999" y2="406.98" stroke="#4285F4" stroke-width="2"/>
<line x1="68.1356" y1="395.822" x2="61.9077" y2="406.609" stroke="#4285F4" stroke-width="2"/>
<line x1="41.3442" y1="396.355" x2="33.3378" y2="405.896" stroke="#4285F4" stroke-width="2"/>
<line x1="14.3498" y1="397.256" x2="4.8082" y2="405.263" stroke="#4285F4" stroke-width="2"/>
<line x1="280.291" y1="395.724" x2="289.833" y2="403.731" stroke="#4285F4" stroke-width="2"/>
<line x1="253.539" y1="395.069" x2="261.546" y2="404.611" stroke="#4285F4" stroke-width="2"/>
<line x1="226.948" y1="394.822" x2="233.176" y2="405.609" stroke="#4285F4" stroke-width="2"/>
<line x1="200.471" y1="394.592" x2="204.731" y2="406.296" stroke="#4285F4" stroke-width="2"/>
<line x1="174.063" y1="394.37" x2="176.226" y2="406.637" stroke="#4285F4" stroke-width="2"/>
<line x1="147.676" y1="394.544" x2="147.676" y2="407" stroke="#4285F4" stroke-width="2"/>
<line x1="121.258" y1="394.718" x2="119.095" y2="406.984" stroke="#4285F4" stroke-width="2"/>
<line x1="122.783" y1="373.478" x2="118.523" y2="385.182" stroke="#4285F4" stroke-width="2"/>
<line x1="96.1629" y1="374.025" x2="89.9351" y2="384.812" stroke="#4285F4" stroke-width="2"/>
<line x1="69.3715" y1="374.557" x2="61.3651" y2="384.098" stroke="#4285F4" stroke-width="2"/>
<line x1="42.3733" y1="375.458" x2="32.8316" y2="383.465" stroke="#4285F4" stroke-width="2"/>
<line x1="15.1406" y1="376.726" x2="4.35367" y2="382.954" stroke="#4285F4" stroke-width="2"/>
<line x1="281.563" y1="373.271" x2="289.569" y2="382.813" stroke="#4285F4" stroke-width="2"/>
<line x1="254.971" y1="373.025" x2="261.199" y2="383.812" stroke="#4285F4" stroke-width="2"/>
<line x1="228.498" y1="372.794" x2="232.758" y2="384.498" stroke="#4285F4" stroke-width="2"/>
<line x1="202.09" y1="372.573" x2="204.253" y2="384.84" stroke="#4285F4" stroke-width="2"/>
<line x1="175.703" y1="372.747" x2="175.703" y2="385.203" stroke="#4285F4" stroke-width="2"/>
<line x1="149.282" y1="372.921" x2="147.119" y2="385.187" stroke="#4285F4" stroke-width="2"/>
<line x1="150.811" y1="351.68" x2="146.551" y2="363.384" stroke="#4285F4" stroke-width="2"/>
<line x1="124.186" y1="352.228" x2="117.958" y2="363.014" stroke="#4285F4" stroke-width="2"/>
<line x1="97.395" y1="352.76" x2="89.3886" y2="362.302" stroke="#4285F4" stroke-width="2"/>
<line x1="70.3967" y1="353.662" x2="60.8551" y2="361.668" stroke="#4285F4" stroke-width="2"/>
<line x1="43.1641" y1="354.93" x2="32.3771" y2="361.157" stroke="#4285F4" stroke-width="2"/>
<line x1="15.6701" y1="355.781" x2="3.96562" y2="360.042" stroke="#4285F4" stroke-width="2"/>
<line x1="282.999" y1="351.228" x2="289.227" y2="362.014" stroke="#4285F4" stroke-width="2"/>
<line x1="256.522" y1="350.996" x2="260.782" y2="362.7" stroke="#4285F4" stroke-width="2"/>
<line x1="230.114" y1="350.776" x2="232.277" y2="363.042" stroke="#4285F4" stroke-width="2"/>
<line x1="203.727" y1="350.949" x2="203.727" y2="363.405" stroke="#4285F4" stroke-width="2"/>
<line x1="177.309" y1="351.123" x2="175.146" y2="363.389" stroke="#4285F4" stroke-width="2"/>
<line x1="178.834" y1="329.883" x2="174.574" y2="341.588" stroke="#4285F4" stroke-width="2"/>
<line x1="152.214" y1="330.43" x2="145.986" y2="341.217" stroke="#4285F4" stroke-width="2"/>
<line x1="125.422" y1="330.962" x2="117.416" y2="340.504" stroke="#4285F4" stroke-width="2"/>
<line x1="98.424" y1="331.864" x2="88.8824" y2="339.87" stroke="#4285F4" stroke-width="2"/>
<line x1="71.1875" y1="333.132" x2="60.4006" y2="339.359" stroke="#4285F4" stroke-width="2"/>
<line x1="43.6936" y1="333.984" x2="31.9891" y2="338.244" stroke="#4285F4" stroke-width="2"/>
<line x1="15.9197" y1="335.197" x2="3.65328" y2="337.36" stroke="#4285F4" stroke-width="2"/>
<line x1="284.549" y1="329.199" x2="288.809" y2="340.904" stroke="#4285F4" stroke-width="2"/>
<line x1="258.141" y1="328.978" x2="260.304" y2="341.244" stroke="#4285F4" stroke-width="2"/>
<line x1="231.754" y1="329.151" x2="231.754" y2="341.607" stroke="#4285F4" stroke-width="2"/>
<line x1="205.332" y1="329.325" x2="203.17" y2="341.591" stroke="#4285F4" stroke-width="2"/>
<line x1="206.862" y1="308.085" x2="202.601" y2="319.79" stroke="#4285F4" stroke-width="2"/>
<line x1="180.237" y1="308.633" x2="174.009" y2="319.42" stroke="#4285F4" stroke-width="2"/>
<line x1="153.446" y1="309.164" x2="145.439" y2="318.706" stroke="#4285F4" stroke-width="2"/>
<line x1="126.447" y1="310.067" x2="116.906" y2="318.073" stroke="#4285F4" stroke-width="2"/>
<line x1="99.2148" y1="311.334" x2="88.4279" y2="317.562" stroke="#4285F4" stroke-width="2"/>
<line x1="71.7209" y1="312.187" x2="60.0164" y2="316.447" stroke="#4285F4" stroke-width="2"/>
<line x1="43.9471" y1="313.399" x2="31.6806" y2="315.562" stroke="#4285F4" stroke-width="2"/>
<line x1="286.164" y1="307.181" x2="288.327" y2="319.447" stroke="#4285F4" stroke-width="2"/>
<line x1="259.777" y1="307.354" x2="259.777" y2="319.81" stroke="#4285F4" stroke-width="2"/>
<line x1="233.36" y1="307.528" x2="231.197" y2="319.795" stroke="#4285F4" stroke-width="2"/>
<line x1="0.320313" y1="312.582" x2="12.776" y2="312.582" stroke="#4285F4" stroke-width="2"/>
<line x1="234.885" y1="286.288" x2="230.625" y2="297.993" stroke="#4285F4" stroke-width="2"/>
<line x1="208.264" y1="286.835" x2="202.037" y2="297.622" stroke="#4285F4" stroke-width="2"/>
<line x1="181.473" y1="287.367" x2="173.467" y2="296.909" stroke="#4285F4" stroke-width="2"/>
<line x1="154.475" y1="288.269" x2="144.933" y2="296.275" stroke="#4285F4" stroke-width="2"/>
<line x1="127.238" y1="289.537" x2="116.451" y2="295.765" stroke="#4285F4" stroke-width="2"/>
<line x1="99.7444" y1="290.389" x2="88.0398" y2="294.649" stroke="#4285F4" stroke-width="2"/>
<line x1="71.9705" y1="291.602" x2="59.7041" y2="293.765" stroke="#4285F4" stroke-width="2"/>
<line x1="287.805" y1="285.557" x2="287.805" y2="298.012" stroke="#4285F4" stroke-width="2"/>
<line x1="261.383" y1="285.73" x2="259.22" y2="297.997" stroke="#4285F4" stroke-width="2"/>
<line x1="28.3477" y1="290.784" x2="40.8034" y2="290.784" stroke="#4285F4" stroke-width="2"/>
<line x1="0.634586" y1="289.632" x2="12.9011" y2="291.795" stroke="#4285F4" stroke-width="2"/>
<line x1="262.912" y1="264.49" x2="258.652" y2="276.195" stroke="#4285F4" stroke-width="2"/>
<line x1="236.288" y1="265.038" x2="230.06" y2="275.825" stroke="#4285F4" stroke-width="2"/>
<line x1="209.497" y1="265.57" x2="201.49" y2="275.111" stroke="#4285F4" stroke-width="2"/>
<line x1="182.498" y1="266.471" x2="172.957" y2="274.477" stroke="#4285F4" stroke-width="2"/>
<line x1="155.266" y1="267.739" x2="144.479" y2="273.967" stroke="#4285F4" stroke-width="2"/>
<line x1="127.772" y1="268.591" x2="116.067" y2="272.851" stroke="#4285F4" stroke-width="2"/>
<line x1="99.9979" y1="269.804" x2="87.7314" y2="271.967" stroke="#4285F4" stroke-width="2"/>
<line x1="289.411" y1="263.932" x2="287.248" y2="276.199" stroke="#4285F4" stroke-width="2"/>
<line x1="56.3711" y1="268.987" x2="68.8268" y2="268.987" stroke="#4285F4" stroke-width="2"/>
<line x1="28.6619" y1="267.835" x2="40.9284" y2="269.997" stroke="#4285F4" stroke-width="2"/>
<line x1="1.22483" y1="266.712" x2="12.9294" y2="270.972" stroke="#4285F4" stroke-width="2"/>
<line x1="290.936" y1="242.693" x2="286.676" y2="254.397" stroke="#4285F4" stroke-width="2"/>
<line x1="264.315" y1="243.24" x2="258.087" y2="254.027" stroke="#4285F4" stroke-width="2"/>
<line x1="237.524" y1="243.773" x2="229.517" y2="253.314" stroke="#4285F4" stroke-width="2"/>
<line x1="210.526" y1="244.674" x2="200.984" y2="252.681" stroke="#4285F4" stroke-width="2"/>
<line x1="183.289" y1="245.942" x2="172.502" y2="252.17" stroke="#4285F4" stroke-width="2"/>
<line x1="155.795" y1="246.794" x2="144.091" y2="251.054" stroke="#4285F4" stroke-width="2"/>
<line x1="128.021" y1="248.006" x2="115.755" y2="250.169" stroke="#4285F4" stroke-width="2"/>
<line x1="2.07031" y1="244.21" x2="12.8573" y2="250.438" stroke="#4285F4" stroke-width="2"/>
<line x1="84.3945" y1="247.189" x2="96.8502" y2="247.189" stroke="#4285F4" stroke-width="2"/>
<line x1="56.6854" y1="246.037" x2="68.9518" y2="248.2" stroke="#4285F4" stroke-width="2"/>
<line x1="29.2522" y1="244.915" x2="40.9567" y2="249.175" stroke="#4285F4" stroke-width="2"/>
<line x1="292.339" y1="221.442" x2="286.111" y2="232.229" stroke="#4285F4" stroke-width="2"/>
<line x1="265.547" y1="221.975" x2="257.541" y2="231.516" stroke="#4285F4" stroke-width="2"/>
<line x1="238.549" y1="222.876" x2="229.007" y2="230.883" stroke="#4285F4" stroke-width="2"/>
<line x1="211.316" y1="224.144" x2="200.529" y2="230.372" stroke="#4285F4" stroke-width="2"/>
<line x1="183.822" y1="224.996" x2="172.118" y2="229.256" stroke="#4285F4" stroke-width="2"/>
<line x1="156.049" y1="226.209" x2="143.782" y2="228.372" stroke="#4285F4" stroke-width="2"/>
<line x1="30.0977" y1="222.412" x2="40.8846" y2="228.64" stroke="#4285F4" stroke-width="2"/>
<line x1="3.14669" y1="221.344" x2="12.6883" y2="229.351" stroke="#4285F4" stroke-width="2"/>
<line x1="112.422" y1="225.393" x2="124.878" y2="225.393" stroke="#4285F4" stroke-width="2"/>
<line x1="84.7127" y1="224.24" x2="96.9792" y2="226.403" stroke="#4285F4" stroke-width="2"/>
<line x1="57.2756" y1="223.117" x2="68.9801" y2="227.377" stroke="#4285F4" stroke-width="2"/>
<line x1="293.575" y1="200.177" x2="285.568" y2="209.719" stroke="#4285F4" stroke-width="2"/>
<line x1="266.576" y1="201.08" x2="257.035" y2="209.086" stroke="#4285F4" stroke-width="2"/>
<line x1="239.34" y1="202.346" x2="228.553" y2="208.574" stroke="#4285F4" stroke-width="2"/>
<line x1="211.846" y1="203.198" x2="200.141" y2="207.459" stroke="#4285F4" stroke-width="2"/>
<line x1="184.072" y1="204.412" x2="171.806" y2="206.574" stroke="#4285F4" stroke-width="2"/>
<line x1="58.1211" y1="200.614" x2="68.908" y2="206.842" stroke="#4285F4" stroke-width="2"/>
<line x1="31.174" y1="199.547" x2="40.7157" y2="207.554" stroke="#4285F4" stroke-width="2"/>
<line x1="4.42229" y1="198.891" x2="12.4287" y2="208.433" stroke="#4285F4" stroke-width="2"/>
<line x1="140.445" y1="203.595" x2="152.901" y2="203.595" stroke="#4285F4" stroke-width="2"/>
<line x1="112.736" y1="202.442" x2="125.003" y2="204.605" stroke="#4285F4" stroke-width="2"/>
<line x1="85.2991" y1="201.319" x2="97.0036" y2="205.579" stroke="#4285F4" stroke-width="2"/>
<line x1="294.6" y1="179.282" x2="285.058" y2="187.288" stroke="#4285F4" stroke-width="2"/>
<line x1="267.367" y1="180.55" x2="256.58" y2="186.777" stroke="#4285F4" stroke-width="2"/>
<line x1="239.873" y1="181.402" x2="228.169" y2="185.662" stroke="#4285F4" stroke-width="2"/>
<line x1="212.099" y1="182.615" x2="199.833" y2="184.778" stroke="#4285F4" stroke-width="2"/>
<line x1="86.1484" y1="178.818" x2="96.9354" y2="185.045" stroke="#4285F4" stroke-width="2"/>
<line x1="59.1975" y1="177.75" x2="68.7391" y2="185.756" stroke="#4285F4" stroke-width="2"/>
<line x1="32.4496" y1="177.095" x2="40.456" y2="186.636" stroke="#4285F4" stroke-width="2"/>
<line x1="5.85431" y1="176.848" x2="12.0822" y2="187.635" stroke="#4285F4" stroke-width="2"/>
<line x1="168.473" y1="181.797" x2="180.928" y2="181.797" stroke="#4285F4" stroke-width="2"/>
<line x1="140.763" y1="180.645" x2="153.03" y2="182.808" stroke="#4285F4" stroke-width="2"/>
<line x1="113.326" y1="179.522" x2="125.031" y2="183.782" stroke="#4285F4" stroke-width="2"/>
<line x1="295.391" y1="158.752" x2="284.604" y2="164.98" stroke="#4285F4" stroke-width="2"/>
<line x1="267.897" y1="159.604" x2="256.192" y2="163.864" stroke="#4285F4" stroke-width="2"/>
<line x1="240.123" y1="160.817" x2="227.856" y2="162.98" stroke="#4285F4" stroke-width="2"/>
<line x1="114.172" y1="157.02" x2="124.959" y2="163.248" stroke="#4285F4" stroke-width="2"/>
<line x1="87.2248" y1="155.952" x2="96.7664" y2="163.958" stroke="#4285F4" stroke-width="2"/>
<line x1="60.4731" y1="155.297" x2="68.4794" y2="164.838" stroke="#4285F4" stroke-width="2"/>
<line x1="33.8817" y1="155.051" x2="40.1095" y2="165.838" stroke="#4285F4" stroke-width="2"/>
<line x1="7.40454" y1="154.819" x2="11.6646" y2="166.524" stroke="#4285F4" stroke-width="2"/>
<line x1="196.496" y1="160" x2="208.952" y2="160" stroke="#4285F4" stroke-width="2"/>
<line x1="168.787" y1="158.847" x2="181.053" y2="161.01" stroke="#4285F4" stroke-width="2"/>
<line x1="141.35" y1="157.724" x2="153.054" y2="161.984" stroke="#4285F4" stroke-width="2"/>
<line x1="295.924" y1="137.807" x2="284.22" y2="142.067" stroke="#4285F4" stroke-width="2"/>
<line x1="268.15" y1="139.019" x2="255.884" y2="141.182" stroke="#4285F4" stroke-width="2"/>
<line x1="142.199" y1="135.222" x2="152.986" y2="141.45" stroke="#4285F4" stroke-width="2"/>
<line x1="115.248" y1="134.155" x2="124.79" y2="142.161" stroke="#4285F4" stroke-width="2"/>
<line x1="88.4965" y1="133.5" x2="96.5029" y2="143.041" stroke="#4285F4" stroke-width="2"/>
<line x1="61.9051" y1="133.253" x2="68.1329" y2="144.04" stroke="#4285F4" stroke-width="2"/>
<line x1="35.4319" y1="133.021" x2="39.692" y2="144.726" stroke="#4285F4" stroke-width="2"/>
<line x1="9.02387" y1="132.801" x2="11.1868" y2="145.067" stroke="#4285F4" stroke-width="2"/>
<line x1="224.523" y1="138.202" x2="236.979" y2="138.202" stroke="#4285F4" stroke-width="2"/>
<line x1="196.814" y1="137.049" x2="209.081" y2="139.212" stroke="#4285F4" stroke-width="2"/>
<line x1="169.377" y1="135.927" x2="181.082" y2="140.188" stroke="#4285F4" stroke-width="2"/>
<line x1="296.174" y1="117.222" x2="283.907" y2="119.385" stroke="#4285F4" stroke-width="2"/>
<line x1="170.223" y1="113.425" x2="181.01" y2="119.653" stroke="#4285F4" stroke-width="2"/>
<line x1="143.276" y1="112.357" x2="152.817" y2="120.363" stroke="#4285F4" stroke-width="2"/>
<line x1="116.524" y1="111.702" x2="124.53" y2="121.244" stroke="#4285F4" stroke-width="2"/>
<line x1="89.9324" y1="111.455" x2="96.1603" y2="122.242" stroke="#4285F4" stroke-width="2"/>
<line x1="63.4553" y1="111.224" x2="67.7154" y2="122.929" stroke="#4285F4" stroke-width="2"/>
<line x1="37.0473" y1="111.003" x2="39.2102" y2="123.27" stroke="#4285F4" stroke-width="2"/>
<line x1="10.6602" y1="111.177" x2="10.6602" y2="123.632" stroke="#4285F4" stroke-width="2"/>
<line x1="252.547" y1="116.405" x2="265.003" y2="116.405" stroke="#4285F4" stroke-width="2"/>
<line x1="224.838" y1="115.252" x2="237.104" y2="117.415" stroke="#4285F4" stroke-width="2"/>
<line x1="197.401" y1="114.13" x2="209.105" y2="118.39" stroke="#4285F4" stroke-width="2"/>
<line x1="198.25" y1="91.6271" x2="209.037" y2="97.855" stroke="#4285F4" stroke-width="2"/>
<line x1="171.299" y1="90.5601" x2="180.841" y2="98.5665" stroke="#4285F4" stroke-width="2"/>
<line x1="144.547" y1="89.9041" x2="152.554" y2="99.4457" stroke="#4285F4" stroke-width="2"/>
<line x1="117.956" y1="89.6582" x2="124.184" y2="100.445" stroke="#4285F4" stroke-width="2"/>
<line x1="91.4827" y1="89.4265" x2="95.7428" y2="101.131" stroke="#4285F4" stroke-width="2"/>
<line x1="65.0747" y1="89.2062" x2="67.2376" y2="101.473" stroke="#4285F4" stroke-width="2"/>
<line x1="38.6875" y1="89.3799" x2="38.6875" y2="101.836" stroke="#4285F4" stroke-width="2"/>
<line x1="12.2661" y1="89.5535" x2="10.1031" y2="101.82" stroke="#4285F4" stroke-width="2"/>
<line x1="280.574" y1="94.6074" x2="293.03" y2="94.6074" stroke="#4285F4" stroke-width="2"/>
<line x1="252.865" y1="93.4546" x2="265.132" y2="95.6176" stroke="#4285F4" stroke-width="2"/>
<line x1="225.428" y1="92.3318" x2="237.132" y2="96.5919" stroke="#4285F4" stroke-width="2"/>
<line x1="13.7952" y1="68.3137" x2="9.53506" y2="80.0182" stroke="#4285F4" stroke-width="2"/>
<line x1="226.273" y1="69.8303" x2="237.06" y2="76.0581" stroke="#4285F4" stroke-width="2"/>
<line x1="199.326" y1="68.7623" x2="208.868" y2="76.7686" stroke="#4285F4" stroke-width="2"/>
<line x1="172.575" y1="68.1072" x2="180.581" y2="77.6488" stroke="#4285F4" stroke-width="2"/>
<line x1="145.983" y1="67.8604" x2="152.211" y2="78.6473" stroke="#4285F4" stroke-width="2"/>
<line x1="119.506" y1="67.6297" x2="123.766" y2="79.3342" stroke="#4285F4" stroke-width="2"/>
<line x1="93.0981" y1="67.4084" x2="95.261" y2="79.6749" stroke="#4285F4" stroke-width="2"/>
<line x1="66.7109" y1="67.582" x2="66.7109" y2="80.0377" stroke="#4285F4" stroke-width="2"/>
<line x1="40.2934" y1="67.7557" x2="38.1305" y2="80.0221" stroke="#4285F4" stroke-width="2"/>
<line x1="280.888" y1="71.6578" x2="293.155" y2="73.8207" stroke="#4285F4" stroke-width="2"/>
<line x1="253.451" y1="70.5349" x2="265.156" y2="74.795" stroke="#4285F4" stroke-width="2"/>
<line x1="41.8186" y1="46.5158" x2="37.5585" y2="58.2204" stroke="#4285F4" stroke-width="2"/>
<line x1="15.1981" y1="47.0635" x2="8.97021" y2="57.8504" stroke="#4285F4" stroke-width="2"/>
<line x1="254.301" y1="48.0324" x2="265.088" y2="54.2603" stroke="#4285F4" stroke-width="2"/>
<line x1="227.35" y1="46.9644" x2="236.891" y2="54.9708" stroke="#4285F4" stroke-width="2"/>
<line x1="200.598" y1="46.3094" x2="208.604" y2="55.851" stroke="#4285F4" stroke-width="2"/>
<line x1="174.007" y1="46.0635" x2="180.234" y2="56.8504" stroke="#4285F4" stroke-width="2"/>
<line x1="147.533" y1="45.8318" x2="151.794" y2="57.5363" stroke="#4285F4" stroke-width="2"/>
<line x1="121.125" y1="45.6105" x2="123.288" y2="57.877" stroke="#4285F4" stroke-width="2"/>
<line x1="94.7383" y1="45.7842" x2="94.7383" y2="58.2399" stroke="#4285F4" stroke-width="2"/>
<line x1="68.3168" y1="45.9578" x2="66.1539" y2="58.2243" stroke="#4285F4" stroke-width="2"/>
<line x1="281.479" y1="48.7371" x2="293.183" y2="52.9972" stroke="#4285F4" stroke-width="2"/>
<line x1="69.8459" y1="24.718" x2="65.5858" y2="36.4225" stroke="#4285F4" stroke-width="2"/>
<line x1="43.2215" y1="25.2656" x2="36.9936" y2="36.0526" stroke="#4285F4" stroke-width="2"/>
<line x1="16.4301" y1="25.7981" x2="8.42374" y2="35.3397" stroke="#4285F4" stroke-width="2"/>
<line x1="282.324" y1="26.2346" x2="293.111" y2="32.4624" stroke="#4285F4" stroke-width="2"/>
<line x1="255.377" y1="25.1675" x2="264.919" y2="33.1739" stroke="#4285F4" stroke-width="2"/>
<line x1="228.625" y1="24.5125" x2="236.632" y2="34.0541" stroke="#4285F4" stroke-width="2"/>
<line x1="202.034" y1="24.2656" x2="208.262" y2="35.0526" stroke="#4285F4" stroke-width="2"/>
<line x1="175.557" y1="24.034" x2="179.817" y2="35.7385" stroke="#4285F4" stroke-width="2"/>
<line x1="149.149" y1="23.8137" x2="151.312" y2="36.0801" stroke="#4285F4" stroke-width="2"/>
<line x1="122.762" y1="23.9873" x2="122.762" y2="36.443" stroke="#4285F4" stroke-width="2"/>
<line x1="96.3442" y1="24.161" x2="94.1813" y2="36.4274" stroke="#4285F4" stroke-width="2"/>
<line x1="97.8694" y1="2.92112" x2="93.6093" y2="14.6256" stroke="#4285F4" stroke-width="2"/>
<line x1="71.2488" y1="3.46777" x2="65.021" y2="14.2547" stroke="#4285F4" stroke-width="2"/>
<line x1="44.4575" y1="4.00021" x2="36.4511" y2="13.5418" stroke="#4285F4" stroke-width="2"/>
<line x1="17.4592" y1="4.90179" x2="7.91758" y2="12.9082" stroke="#4285F4" stroke-width="2"/>
<line x1="283.401" y1="3.3697" x2="292.942" y2="11.3761" stroke="#4285F4" stroke-width="2"/>
<line x1="256.649" y1="2.71463" x2="264.655" y2="12.2563" stroke="#4285F4" stroke-width="2"/>
<line x1="230.057" y1="2.46777" x2="236.285" y2="13.2547" stroke="#4285F4" stroke-width="2"/>
<line x1="203.584" y1="2.23708" x2="207.844" y2="13.9416" stroke="#4285F4" stroke-width="2"/>
<line x1="177.176" y1="2.01581" x2="179.339" y2="14.2823" stroke="#4285F4" stroke-width="2"/>
<line x1="150.789" y1="2.18945" x2="150.789" y2="14.6451" stroke="#4285F4" stroke-width="2"/>
<line x1="124.368" y1="2.3631" x2="122.205" y2="14.6296" stroke="#4285F4" stroke-width="2"/>
</g>
</svg>
