<svg width="37" height="32" viewBox="0 0 37 32" fill="none" xmlns="http://www.w3.org/2000/svg">
<g clip-path="url(#clip0_10_9)">
<path fill-rule="evenodd" clip-rule="evenodd" d="M2.50545 0H34.4945C35.8741 0 37 1.11807 37 2.48804V29.512C37 30.8783 35.8741 32 34.4945 32H2.50545C1.12662 32 0 30.8812 0 29.512V2.48804C0 1.11807 1.12662 0 2.50545 0ZM5.03258 8.30733H31.9674C32.6489 8.30733 33.2053 8.86277 33.2053 9.53663V22.599C33.2053 23.2729 32.6453 23.8283 31.9674 23.8283H5.03258C4.354 23.8283 3.79395 23.2743 3.79395 22.599V9.53663C3.79395 8.86134 4.35111 8.30733 5.03258 8.30733V8.30733ZM18.4993 10.2779C21.7194 10.2779 24.3297 12.87 24.3297 16.0678C24.3297 19.2656 21.7194 21.8577 18.4993 21.8577C15.2798 21.8577 12.6696 19.2656 12.6696 16.0678C12.6696 12.87 15.2798 10.2779 18.4993 10.2779V10.2779ZM18.1719 12.8858V11.3896C17.6545 11.8467 17.1609 12.344 16.7331 12.8858H18.1719ZM23.0014 18.596C23.388 17.9071 23.615 17.1823 23.6583 16.3908H22.2318C22.1921 17.1723 21.9507 17.9107 21.5742 18.5953L23.0014 18.596V18.596ZM22.5678 19.2498H21.1673C20.681 19.9445 20.0725 20.5631 19.4315 21.1178C20.6752 20.8917 21.7801 20.2322 22.5678 19.2498ZM17.5707 21.1164C16.9289 20.5645 16.3219 19.9423 15.8356 19.2498H14.4387C15.2358 20.2444 16.3306 20.8889 17.5707 21.1164ZM13.9979 18.5989H15.4251C15.0508 17.9172 14.8065 17.173 14.7675 16.3936H13.3417C13.3908 17.1967 13.6069 17.8992 13.9979 18.5989V18.5989ZM13.3402 15.7427H14.7812C14.8506 14.9598 15.1209 14.2199 15.506 13.5374H13.9979C13.6098 14.2292 13.3836 14.9562 13.3402 15.7427V15.7427ZM14.4322 12.8858H15.9216C16.4086 12.1969 16.9976 11.5733 17.622 11.0063C16.3508 11.2259 15.2372 11.8854 14.4322 12.8858ZM19.3824 11.0107C20.0075 11.5761 20.5943 12.1969 21.0777 12.8858H22.5642C21.7657 11.8926 20.6456 11.2259 19.3824 11.0107ZM23.0007 13.5374H21.4932C21.8777 14.2178 22.1487 14.9619 22.2181 15.7427H23.6576C23.6041 14.9411 23.3974 14.235 23.0007 13.5374ZM18.8274 11.3896V12.8858H20.2662C19.8384 12.344 19.3455 11.8467 18.8274 11.3896ZM18.8274 13.5374V15.7427H21.5612C21.4781 14.949 21.1587 14.2063 20.7308 13.5374H18.8274ZM18.8274 16.3936V18.5989H20.8168C21.241 17.9258 21.5272 17.1916 21.5756 16.3936H18.8274V16.3936ZM18.8274 19.2498V20.7741C19.3787 20.3126 19.9012 19.8103 20.3507 19.2498H18.8274ZM18.1719 20.7741V19.2498H16.6478C17.0944 19.8103 17.6205 20.3155 18.1719 20.7741ZM18.1719 18.5989V16.3936H15.4237C15.4728 17.1916 15.7597 17.9243 16.1824 18.5989H18.1719ZM18.1719 15.7427V13.5374H16.2677C15.8399 14.2063 15.5212 14.949 15.4381 15.7427H18.1719ZM35.5214 6.01018H1.59273V29.7545C1.59226 29.8449 1.60984 29.9346 1.64446 30.0182C1.67908 30.1018 1.73006 30.1778 1.79444 30.2417C1.85882 30.3057 1.93533 30.3563 2.01954 30.3907C2.10375 30.425 2.19399 30.4425 2.28504 30.442H34.8169C35.202 30.442 35.5099 30.1342 35.5099 29.7538V6.01018H35.5214ZM32.1098 2.15864C32.7934 2.15864 33.3477 2.70907 33.3477 3.38795C33.3477 4.06683 32.7934 4.61654 32.1098 4.61654C31.4269 4.61654 30.8726 4.06683 30.8726 3.38795C30.8726 2.70907 31.4298 2.15864 32.1098 2.15864V2.15864ZM23.727 2.15864C24.4106 2.15864 24.9649 2.70907 24.9649 3.38795C24.9649 4.06683 24.4106 4.61654 23.727 4.61654C23.0433 4.61654 22.4898 4.06683 22.4898 3.38795C22.4898 2.70907 23.0433 2.15864 23.727 2.15864V2.15864ZM27.9184 2.15864C28.602 2.15864 29.1563 2.70907 29.1563 3.38795C29.1563 4.06683 28.602 4.61654 27.9184 4.61654C27.2355 4.61654 26.6812 4.06683 26.6812 3.38795C26.6812 2.70907 27.2355 2.15864 27.9184 2.15864V2.15864ZM20.1354 28.0552C19.5992 28.0552 19.1656 27.5858 19.1656 27.0089C19.1656 26.429 19.5992 25.9625 20.1354 25.9625H32.0737C32.6099 25.9625 33.0435 26.4319 33.0435 27.0089C33.0435 27.5858 32.6099 28.0552 32.0737 28.0552H20.1354ZM4.50432 28.0552C3.97461 28.0552 3.54391 27.5858 3.54391 27.0089C3.54391 26.429 3.97461 25.9625 4.50432 25.9625H15.5732C16.1029 25.9625 16.5337 26.4319 16.5337 27.0089C16.5337 27.5858 16.1029 28.0552 15.5732 28.0552H4.50432V28.0552Z" fill="#4285F4"/>
</g>
<defs>
<clipPath id="clip0_10_9">
<rect width="37" height="32" fill="white"/>
</clipPath>
</defs>
</svg>
